%FSLAX35Y35*%
%MOIN*%
G04 2=Kupferunten/CopperbottomL2(X.Bot)*
%ADD10C,0.00591*%
%ADD11C,0.00256*%
%ADD12C,0.00295*%
%ADD13C,0.00472*%
%ADD14C,0.00512*%
%ADD15C,0.00600*%
%ADD16C,0.00768*%
%ADD17C,0.00787*%
%ADD18C,0.00984*%
%ADD19C,0.01024*%
%ADD20C,0.01181*%
%ADD21C,0.01575*%
%ADD22C,0.01969*%
%ADD23C,0.02362*%
%ADD24C,0.03200*%
%ADD25C,0.03937*%
%ADD26C,0.07500*%
%ADD27C,0.07874*%
%ADD28C,0.12000*%
%AMR_29*21,1,0.00787,0.00787,0,0,0.000*%
%ADD29R_29*%
%AMR_30*21,1,0.01969,0.01969,0,0,0.000*%
%ADD30R_30*%
%AMR_31*21,1,0.02625,0.02625,0,0,0.000*%
%ADD31R_31*%
%AMR_32*21,1,0.03333,0.03333,0,0,0.000*%
%ADD32R_32*%
%AMR_33*21,1,0.03412,0.03412,0,0,0.000*%
%ADD33R_33*%
%AMR_34*21,1,0.05000,0.05000,0,0,90.000*%
%ADD34R_34*%
%AMR_35*21,1,0.05000,0.05000,0,0,270.000*%
%ADD35R_35*%
%AMOCT_36*4,1,8,0.035433,0.017717,0.017717,0.035433,-0.017717,0.035433,-0.035433,0.017717,-0.035433,-0.017717,-0.017717,-0.035433,0.017717,-0.035433,0.035433,-0.017717,0.035433,0.017717,0.000*%
%ADD36OCT_36*%
%AMOCT_37*4,1,8,0.078740,0.012500,0.066240,0.025000,-0.066240,0.025000,-0.078740,0.012500,-0.078740,-0.012500,-0.066240,-0.025000,0.066240,-0.025000,0.078740,-0.012500,0.078740,0.012500,0.000*%
%ADD37OCT_37*%
%AMOCT_38*4,1,8,0.078740,0.014764,0.063976,0.029528,-0.063976,0.029528,-0.078740,0.014764,-0.078740,-0.014764,-0.063976,-0.029528,0.063976,-0.029528,0.078740,-0.014764,0.078740,0.014764,0.000*%
%ADD38OCT_38*%
%ADD39O,0.05906X0.02559*%
%AMRR_40*21,1,0.02559,0.05394,0,0,90.000*21,1,0.02047,0.05906,0,0,90.000*1,1,0.00512,-0.02697,0.01024*1,1,0.00512,0.02697,-0.01024*1,1,0.00512,0.02697,0.01024*1,1,0.00512,-0.02697,-0.01024*%
%ADD40RR_40*%
G54D22*
X179438Y121318D02*
X168188Y110068D01*
X168188Y78818D01*
X178188Y68818D01*
X168188Y110068D02*
X150688Y110068D01*
X145688Y115068D01*
X179438Y121318D02*
X183188Y121318D01*
X21332Y8070D02*
X92065Y8070D01*
X24299Y11220D02*
X93744Y11220D01*
X25992Y14370D02*
X152203Y14370D01*
X26793Y17519D02*
X153007Y17519D01*
X26952Y20669D02*
X162823Y20669D01*
X26362Y23818D02*
X163676Y23818D01*
X213370Y23818D02*
X213956Y23818D01*
X25058Y26968D02*
X186319Y26968D01*
X212066Y26968D02*
X213956Y26968D01*
X22685Y30118D02*
X188692Y30118D01*
X209693Y30118D02*
X213956Y30118D01*
X4921Y33267D02*
X6377Y33267D01*
X17992Y33267D02*
X193384Y33267D01*
X207952Y33267D02*
X213956Y33267D01*
X4921Y36417D02*
X194129Y36417D01*
X209748Y36417D02*
X213956Y36417D01*
X4921Y39566D02*
X185481Y39566D01*
X210074Y39566D02*
X213956Y39566D01*
X4921Y42716D02*
X183267Y42716D01*
X209119Y42716D02*
X213956Y42716D01*
X4921Y45866D02*
X7764Y45866D01*
X28613Y45866D02*
X183267Y45866D01*
X196959Y45866D02*
X197792Y45866D01*
X206085Y45866D02*
X213956Y45866D01*
X4921Y49015D02*
X7480Y49015D01*
X28897Y49015D02*
X183267Y49015D01*
X193110Y49015D02*
X213956Y49015D01*
X4921Y52165D02*
X8158Y52165D01*
X28219Y52165D02*
X183267Y52165D01*
X193110Y52165D02*
X197167Y52165D01*
X206709Y52165D02*
X213956Y52165D01*
X4921Y55314D02*
X173386Y55314D01*
X193110Y55314D02*
X194548Y55314D01*
X209329Y55314D02*
X213956Y55314D01*
X4921Y58464D02*
X172270Y58464D01*
X210113Y58464D02*
X213956Y58464D01*
X4921Y61614D02*
X172971Y61614D01*
X193406Y61614D02*
X194249Y61614D01*
X209628Y61614D02*
X213956Y61614D01*
X4921Y64763D02*
X173874Y64763D01*
X192503Y64763D02*
X196304Y64763D01*
X207573Y64763D02*
X213956Y64763D01*
X4921Y67913D02*
X172316Y67913D01*
X194061Y67913D02*
X213956Y67913D01*
X4921Y71062D02*
X172682Y71062D01*
X193695Y71062D02*
X199362Y71062D01*
X204515Y71062D02*
X213956Y71062D01*
X4921Y74212D02*
X9418Y74212D01*
X16959Y74212D02*
X19418Y74212D01*
X26959Y74212D02*
X174443Y74212D01*
X191934Y74212D02*
X195150Y74212D01*
X208727Y74212D02*
X213956Y74212D01*
X4921Y77362D02*
X7480Y77362D01*
X28897Y77362D02*
X172452Y77362D01*
X210004Y77362D02*
X213956Y77362D01*
X4921Y80511D02*
X7480Y80511D01*
X28897Y80511D02*
X172510Y80511D01*
X209963Y80511D02*
X213956Y80511D01*
X4921Y83661D02*
X9654Y83661D01*
X16723Y83661D02*
X19654Y83661D01*
X26723Y83661D02*
X174785Y83661D01*
X191592Y83661D02*
X195344Y83661D01*
X208533Y83661D02*
X213956Y83661D01*
X4921Y86811D02*
X172588Y86811D01*
X193789Y86811D02*
X200140Y86811D01*
X203737Y86811D02*
X213956Y86811D01*
X4921Y89960D02*
X172374Y89960D01*
X194003Y89960D02*
X213956Y89960D01*
X4921Y93110D02*
X174083Y93110D01*
X182294Y93110D02*
X184083Y93110D01*
X207823Y93110D02*
X213956Y93110D01*
X4921Y96259D02*
X189062Y96259D01*
X209700Y96259D02*
X213956Y96259D01*
X4921Y99409D02*
X193787Y99409D01*
X210090Y99409D02*
X213956Y99409D01*
X4921Y102559D02*
X194674Y102559D01*
X209203Y102559D02*
X213956Y102559D01*
X4921Y105708D02*
X7921Y105708D01*
X28455Y105708D02*
X197497Y105708D01*
X206380Y105708D02*
X213956Y105708D01*
X4921Y108858D02*
X7480Y108858D01*
X28897Y108858D02*
X213956Y108858D01*
X4921Y112007D02*
X8000Y112007D01*
X28377Y112007D02*
X135223Y112007D01*
X156154Y112007D02*
X213956Y112007D01*
X19590Y115157D02*
X134862Y115157D01*
X156515Y115157D02*
X159859Y115157D01*
X166518Y115157D02*
X179859Y115157D01*
X186518Y115157D02*
X191787Y115157D01*
X206598Y115157D02*
X213956Y115157D01*
X23367Y118307D02*
X135400Y118307D01*
X155977Y118307D02*
X156710Y118307D01*
X169667Y118307D02*
X176710Y118307D01*
X210375Y118307D02*
X213956Y118307D01*
X25453Y121456D02*
X156692Y121456D01*
X169685Y121456D02*
X176692Y121456D01*
X212461Y121456D02*
X213956Y121456D01*
X26593Y124606D02*
X156985Y124606D01*
X169392Y124606D02*
X176985Y124606D01*
X213601Y124606D02*
X213956Y124606D01*
X26950Y127755D02*
X160135Y127755D01*
X166242Y127755D02*
X180135Y127755D01*
X26680Y130905D02*
X184697Y130905D01*
X25633Y134055D02*
X185744Y134055D01*
X23708Y137204D02*
X187669Y137204D01*
X20203Y140354D02*
X191174Y140354D01*
X8070Y33868D02*
X8070Y45559D01*
X8070Y52078D02*
X8070Y75559D01*
X8070Y82078D02*
X8070Y105559D01*
X8070Y112078D02*
X8070Y113769D01*
X11220Y34452D02*
X11220Y43110D01*
X11220Y54527D02*
X11220Y73110D01*
X11220Y84527D02*
X11220Y103110D01*
X14370Y4921D02*
X14370Y5079D01*
X14370Y34290D02*
X14370Y43110D01*
X14370Y54527D02*
X14370Y73110D01*
X14370Y84527D02*
X14370Y103110D01*
X14370Y142558D02*
X14370Y142716D01*
X17519Y4921D02*
X17519Y5886D01*
X17519Y33483D02*
X17519Y44772D01*
X17519Y52865D02*
X17519Y74772D01*
X17519Y82865D02*
X17519Y104772D01*
X17519Y112865D02*
X17519Y114153D01*
X17519Y141751D02*
X17519Y142716D01*
X20669Y4921D02*
X20669Y7582D01*
X20669Y31787D02*
X20669Y43110D01*
X20669Y54527D02*
X20669Y73110D01*
X20669Y84527D02*
X20669Y103110D01*
X20669Y114527D02*
X20669Y115850D01*
X20669Y140054D02*
X20669Y142716D01*
X23818Y4921D02*
X23818Y10559D01*
X23818Y28810D02*
X23818Y43110D01*
X23818Y54527D02*
X23818Y73110D01*
X23818Y84527D02*
X23818Y103110D01*
X23818Y114527D02*
X23818Y118827D01*
X23818Y137077D02*
X23818Y142716D01*
X26968Y4921D02*
X26968Y44221D01*
X26968Y53416D02*
X26968Y74221D01*
X26968Y83416D02*
X26968Y104221D01*
X26968Y113416D02*
X26968Y142716D01*
X30118Y4921D02*
X30118Y142716D01*
X33267Y4921D02*
X33267Y142716D01*
X36417Y4921D02*
X36417Y142716D01*
X39566Y4921D02*
X39566Y142716D01*
X42716Y4921D02*
X42716Y142716D01*
X45866Y4921D02*
X45866Y142716D01*
X49015Y4921D02*
X49015Y142716D01*
X52165Y4921D02*
X52165Y142716D01*
X55314Y4921D02*
X55314Y142716D01*
X58464Y4921D02*
X58464Y142716D01*
X61614Y4921D02*
X61614Y142716D01*
X64763Y4921D02*
X64763Y142716D01*
X67913Y4921D02*
X67913Y142716D01*
X71062Y4921D02*
X71062Y142716D01*
X74212Y4921D02*
X74212Y142716D01*
X77362Y4921D02*
X77362Y142716D01*
X80511Y4921D02*
X80511Y142716D01*
X83661Y4921D02*
X83661Y142716D01*
X86811Y4921D02*
X86811Y142716D01*
X89960Y4921D02*
X89960Y142716D01*
X93110Y10586D02*
X93110Y142716D01*
X96259Y11272D02*
X96259Y142716D01*
X99409Y11272D02*
X99409Y142716D01*
X102559Y11272D02*
X102559Y142716D01*
X105708Y11272D02*
X105708Y142716D01*
X108858Y11272D02*
X108858Y142716D01*
X112007Y11272D02*
X112007Y142716D01*
X115157Y11272D02*
X115157Y142716D01*
X118307Y11272D02*
X118307Y142716D01*
X121456Y11272D02*
X121456Y142716D01*
X124606Y11272D02*
X124606Y142716D01*
X127755Y11272D02*
X127755Y142716D01*
X130905Y11272D02*
X130905Y142716D01*
X134055Y11272D02*
X134055Y142716D01*
X137204Y11272D02*
X137204Y110026D01*
X137204Y120110D02*
X137204Y142716D01*
X140354Y11272D02*
X140354Y109163D01*
X140354Y120974D02*
X140354Y142716D01*
X143503Y11272D02*
X143503Y109163D01*
X143503Y120974D02*
X143503Y142716D01*
X146653Y11272D02*
X146653Y109163D01*
X146653Y120974D02*
X146653Y142716D01*
X149803Y11272D02*
X149803Y109163D01*
X149803Y120974D02*
X149803Y142716D01*
X152952Y17464D02*
X152952Y109163D01*
X152952Y120974D02*
X152952Y142716D01*
X156102Y17984D02*
X156102Y111956D01*
X156102Y118181D02*
X156102Y142716D01*
X159251Y17984D02*
X159251Y115765D01*
X159251Y126872D02*
X159251Y142716D01*
X162401Y17984D02*
X162401Y114822D01*
X162401Y127814D02*
X162401Y142716D01*
X165551Y24234D02*
X165551Y114822D01*
X165551Y127814D02*
X165551Y142716D01*
X168700Y24234D02*
X168700Y117339D01*
X168700Y125297D02*
X168700Y142716D01*
X171850Y24234D02*
X171850Y142716D01*
X174999Y24234D02*
X174999Y53828D01*
X174999Y63809D02*
X174999Y63828D01*
X174999Y73809D02*
X174999Y73828D01*
X174999Y83809D02*
X174999Y83828D01*
X174999Y93809D02*
X174999Y142716D01*
X178149Y24234D02*
X178149Y52861D01*
X178149Y94776D02*
X178149Y116867D01*
X178149Y125770D02*
X178149Y142716D01*
X181299Y24234D02*
X181299Y53774D01*
X181299Y93863D02*
X181299Y114822D01*
X181299Y127814D02*
X181299Y142716D01*
X184448Y24234D02*
X184448Y40196D01*
X184448Y93428D02*
X184448Y114822D01*
X184448Y129174D02*
X184448Y142716D01*
X187598Y28855D02*
X187598Y38797D01*
X187598Y94709D02*
X187598Y116237D01*
X187598Y137123D02*
X187598Y142716D01*
X190748Y31812D02*
X190748Y37651D01*
X190748Y97452D02*
X190748Y115825D01*
X190748Y140080D02*
X190748Y142716D01*
X193897Y33501D02*
X193897Y36506D01*
X193897Y46979D02*
X193897Y57183D01*
X193897Y60454D02*
X193897Y67248D01*
X193897Y70388D02*
X193897Y75053D01*
X193897Y82584D02*
X193897Y87248D01*
X193897Y100454D02*
X193897Y114135D01*
X193897Y141769D02*
X193897Y142716D01*
X197047Y45834D02*
X197047Y52264D01*
X197047Y65373D02*
X197047Y72264D01*
X197047Y85373D02*
X197047Y92264D01*
X197047Y105373D02*
X197047Y113341D01*
X197047Y142564D02*
X197047Y142716D01*
X200196Y46828D02*
X200196Y50809D01*
X200196Y66828D02*
X200196Y70809D01*
X200196Y86828D02*
X200196Y90809D01*
X200196Y106828D02*
X200196Y113184D01*
X203346Y46889D02*
X203346Y50748D01*
X203346Y66889D02*
X203346Y70748D01*
X203346Y86889D02*
X203346Y90748D01*
X203346Y106889D02*
X203346Y113780D01*
X206496Y45646D02*
X206496Y51990D01*
X206496Y65646D02*
X206496Y71990D01*
X206496Y85646D02*
X206496Y91990D01*
X206496Y105646D02*
X206496Y115091D01*
X209645Y30168D02*
X209645Y36079D01*
X209645Y41557D02*
X209645Y56079D01*
X209645Y61557D02*
X209645Y76079D01*
X209645Y81557D02*
X209645Y96079D01*
X209645Y101557D02*
X209645Y117469D01*
X212795Y25449D02*
X212795Y122187D01*
X92065Y9542D02*
X93795Y11272D01*
X152203Y11272D01*
X152203Y16715D01*
X153472Y17984D01*
X162823Y17984D01*
X162823Y22965D01*
X164092Y24234D01*
X185137Y24234D01*
X185320Y24859D01*
X186198Y26780D01*
X187340Y28557D01*
X188723Y30154D01*
X190320Y31537D01*
X192097Y32679D01*
X194018Y33557D01*
X195363Y33952D01*
X195113Y34257D01*
X194354Y35677D01*
X194128Y36422D01*
X187321Y38897D01*
X186150Y38897D01*
X185481Y39567D01*
X184591Y39890D01*
X184096Y40952D01*
X183267Y41780D01*
X183267Y42727D01*
X182867Y43584D01*
X183267Y44685D01*
X183267Y53897D01*
X181477Y53897D01*
X180959Y53539D01*
X179615Y53030D01*
X178188Y52856D01*
X176762Y53030D01*
X175418Y53539D01*
X174235Y54356D01*
X173282Y55432D01*
X172614Y56704D01*
X172270Y58100D01*
X172270Y59537D01*
X172614Y60933D01*
X173282Y62205D01*
X174235Y63281D01*
X175014Y63818D01*
X174235Y64356D01*
X173282Y65432D01*
X172614Y66704D01*
X172270Y68100D01*
X172270Y69537D01*
X172614Y70933D01*
X173282Y72205D01*
X174235Y73281D01*
X175014Y73818D01*
X174235Y74356D01*
X173282Y75432D01*
X172614Y76704D01*
X172270Y78100D01*
X172270Y79537D01*
X172614Y80933D01*
X173282Y82205D01*
X174235Y83281D01*
X175014Y83818D01*
X174235Y84356D01*
X173282Y85432D01*
X172614Y86704D01*
X172270Y88100D01*
X172270Y89537D01*
X172614Y90933D01*
X173282Y92205D01*
X174235Y93281D01*
X175418Y94097D01*
X176762Y94607D01*
X178188Y94780D01*
X179615Y94607D01*
X180959Y94097D01*
X182142Y93281D01*
X183095Y92205D01*
X183116Y92165D01*
X183261Y92165D01*
X183282Y92205D01*
X184235Y93281D01*
X185418Y94097D01*
X186762Y94607D01*
X187930Y94749D01*
X189862Y97325D01*
X192112Y97647D01*
X193763Y98472D01*
X193729Y98818D01*
X193887Y100420D01*
X194354Y101960D01*
X195113Y103379D01*
X196133Y104623D01*
X197378Y105644D01*
X198797Y106403D01*
X200337Y106870D01*
X201938Y107028D01*
X203540Y106870D01*
X205080Y106403D01*
X206499Y105644D01*
X207743Y104623D01*
X208764Y103379D01*
X209523Y101960D01*
X209990Y100420D01*
X210148Y98818D01*
X209990Y97217D01*
X209523Y95677D01*
X208764Y94257D01*
X207743Y93013D01*
X206499Y91992D01*
X205080Y91234D01*
X203540Y90767D01*
X201938Y90609D01*
X200337Y90767D01*
X198797Y91234D01*
X197378Y91992D01*
X196769Y92492D01*
X194979Y91597D01*
X193941Y90212D01*
X194107Y89537D01*
X194107Y88100D01*
X193763Y86704D01*
X193095Y85432D01*
X192142Y84356D01*
X191363Y83818D01*
X192142Y83281D01*
X192760Y82584D01*
X194687Y82584D01*
X195113Y83379D01*
X196133Y84623D01*
X197378Y85644D01*
X198797Y86403D01*
X200337Y86870D01*
X201938Y87028D01*
X203540Y86870D01*
X205080Y86403D01*
X206499Y85644D01*
X207743Y84623D01*
X208764Y83379D01*
X209523Y81960D01*
X209990Y80420D01*
X210148Y78818D01*
X209990Y77217D01*
X209523Y75677D01*
X208764Y74257D01*
X207743Y73013D01*
X206499Y71992D01*
X205080Y71234D01*
X203540Y70767D01*
X201938Y70609D01*
X200337Y70767D01*
X198797Y71234D01*
X197378Y71992D01*
X196133Y73013D01*
X195113Y74257D01*
X194687Y75053D01*
X192760Y75053D01*
X192142Y74356D01*
X191363Y73818D01*
X192142Y73281D01*
X193095Y72205D01*
X193763Y70933D01*
X194107Y69537D01*
X194107Y68100D01*
X193763Y66704D01*
X193095Y65432D01*
X192142Y64356D01*
X191363Y63818D01*
X192142Y63281D01*
X193095Y62205D01*
X193763Y60933D01*
X193888Y60425D01*
X194354Y61960D01*
X195113Y63379D01*
X196133Y64623D01*
X197378Y65644D01*
X198797Y66403D01*
X200337Y66870D01*
X201938Y67028D01*
X203540Y66870D01*
X205080Y66403D01*
X206499Y65644D01*
X207743Y64623D01*
X208764Y63379D01*
X209523Y61960D01*
X209990Y60420D01*
X210148Y58818D01*
X209990Y57217D01*
X209523Y55677D01*
X208764Y54257D01*
X207743Y53013D01*
X206499Y51992D01*
X205080Y51234D01*
X203540Y50767D01*
X201938Y50609D01*
X200337Y50767D01*
X198797Y51234D01*
X197378Y51992D01*
X196133Y53013D01*
X195113Y54257D01*
X194354Y55677D01*
X193888Y57212D01*
X193763Y56704D01*
X193110Y55460D01*
X193110Y47265D01*
X197454Y45685D01*
X198797Y46403D01*
X200337Y46870D01*
X201938Y47028D01*
X203540Y46870D01*
X205080Y46403D01*
X206499Y45644D01*
X207743Y44623D01*
X208764Y43379D01*
X209523Y41960D01*
X209990Y40420D01*
X210148Y38818D01*
X209990Y37217D01*
X209523Y35677D01*
X208764Y34257D01*
X207743Y33013D01*
X206876Y32301D01*
X208065Y31537D01*
X209662Y30154D01*
X211045Y28557D01*
X212187Y26780D01*
X213065Y24859D01*
X213660Y22832D01*
X213956Y20770D01*
X213956Y126867D01*
X213660Y124805D01*
X213065Y122778D01*
X212187Y120857D01*
X211045Y119080D01*
X209662Y117483D01*
X208065Y116100D01*
X206288Y114958D01*
X204366Y114080D01*
X202340Y113485D01*
X200249Y113184D01*
X198136Y113184D01*
X196045Y113485D01*
X194018Y114080D01*
X192097Y114958D01*
X190320Y116100D01*
X188788Y117427D01*
X186183Y114822D01*
X180194Y114822D01*
X176692Y118324D01*
X176692Y124313D01*
X180194Y127814D01*
X184427Y127814D01*
X184429Y127952D01*
X184422Y128596D01*
X184426Y128610D01*
X184424Y129006D01*
X184725Y131099D01*
X185320Y133126D01*
X186198Y135048D01*
X187340Y136825D01*
X188723Y138421D01*
X190320Y139805D01*
X192097Y140947D01*
X194018Y141824D01*
X196045Y142420D01*
X198107Y142716D01*
X13270Y142716D01*
X15332Y142420D01*
X17359Y141824D01*
X19280Y140947D01*
X21057Y139805D01*
X22654Y138421D01*
X24037Y136825D01*
X25179Y135048D01*
X26057Y133126D01*
X26652Y131099D01*
X26953Y129006D01*
X26951Y128610D01*
X26955Y128596D01*
X26948Y127952D01*
X26955Y127309D01*
X26951Y127294D01*
X26953Y126898D01*
X26652Y124805D01*
X26057Y122778D01*
X25179Y120857D01*
X24037Y119080D01*
X22654Y117483D01*
X21057Y116100D01*
X19280Y114958D01*
X17359Y114080D01*
X16543Y113841D01*
X18188Y112196D01*
X20520Y114527D01*
X25857Y114527D01*
X28897Y111487D01*
X28897Y106150D01*
X25857Y103110D01*
X20520Y103110D01*
X18188Y105441D01*
X15857Y103110D01*
X10520Y103110D01*
X7480Y106150D01*
X7480Y111487D01*
X9422Y113430D01*
X9037Y113485D01*
X7010Y114080D01*
X5089Y114958D01*
X4921Y115066D01*
X4921Y32571D01*
X5089Y32679D01*
X7010Y33557D01*
X9037Y34152D01*
X11128Y34452D01*
X13241Y34452D01*
X15332Y34152D01*
X17359Y33557D01*
X19280Y32679D01*
X21057Y31537D01*
X22654Y30154D01*
X24037Y28557D01*
X25179Y26780D01*
X26057Y24859D01*
X26652Y22832D01*
X26953Y20739D01*
X26951Y20343D01*
X26955Y20328D01*
X26948Y19685D01*
X26955Y19041D01*
X26951Y19026D01*
X26953Y18630D01*
X26652Y16537D01*
X26057Y14511D01*
X25179Y12589D01*
X24037Y10812D01*
X22654Y9215D01*
X21057Y7832D01*
X19280Y6690D01*
X17359Y5812D01*
X15332Y5217D01*
X13270Y4921D01*
X92065Y4921D01*
X92065Y9542D01*
X10520Y43110D02*
X7480Y46150D01*
X7480Y51487D01*
X10520Y54527D01*
X15857Y54527D01*
X18188Y52196D01*
X20520Y54527D01*
X25857Y54527D01*
X28897Y51487D01*
X28897Y46150D01*
X25857Y43110D01*
X20520Y43110D01*
X18188Y45441D01*
X15857Y43110D01*
X10520Y43110D01*
X10520Y73110D02*
X7480Y76150D01*
X7480Y81487D01*
X10520Y84527D01*
X15857Y84527D01*
X18188Y82196D01*
X20520Y84527D01*
X25857Y84527D01*
X28897Y81487D01*
X28897Y76150D01*
X25857Y73110D01*
X20520Y73110D01*
X18188Y75441D01*
X15857Y73110D01*
X10520Y73110D01*
X138068Y109163D02*
X134862Y112369D01*
X134862Y117768D01*
X138068Y120974D01*
X153309Y120974D01*
X156515Y117768D01*
X156515Y112369D01*
X153309Y109163D01*
X138068Y109163D01*
X160194Y114822D02*
X156692Y118324D01*
X156692Y124313D01*
X160194Y127814D01*
X166183Y127814D01*
X169685Y124313D01*
X169685Y118324D01*
X166183Y114822D01*
X160194Y114822D01*
G54D23*
X178188Y88818D02*
X188188Y88818D01*
X191938Y93818D02*
X201938Y98818D01*
G54D24*
X188188Y88818D02*
X191938Y93818D01*
X178188Y78818D02*
X188188Y78818D01*
X201938Y78818D01*
G54D25*
X188188Y58818D02*
X178188Y58818D01*
X188188Y43818D02*
X188188Y58818D01*
X201938Y38818D02*
X188188Y43818D01*
G54D26*
X188188Y58818D03*
X178188Y58818D03*
X188188Y68818D03*
X178188Y68818D03*
X188188Y78818D03*
X178188Y78818D03*
X188188Y88818D03*
X178188Y88818D03*
G54D28*
X201938Y38818D03*
X201938Y58818D03*
X201938Y78818D03*
X201938Y98818D03*
G54D36*
X13188Y108818D03*
X23188Y108818D03*
X13188Y48818D03*
X23188Y48818D03*
X13188Y78818D03*
X23188Y78818D03*
X163188Y121318D03*
X183188Y121318D03*
G54D38*
X145688Y115068D03*
G36*
X187755Y3818D02*
X187755Y3818D01*
X187755Y7992D01*
X184527Y7992D01*
X184527Y7283D01*
X186889Y7283D01*
X186889Y6377D01*
X184685Y6377D01*
X184685Y5669D01*
X186889Y5669D01*
X186889Y4527D01*
X184448Y4527D01*
X184448Y3818D01*
X187755Y3818D01*
G37*
G36*
X183976Y5157D02*
X183976Y5157D01*
X183149Y5236D01*
X183031Y4881D01*
X182834Y4645D01*
X182559Y4488D01*
X182165Y4448D01*
X181811Y4488D01*
X181535Y4606D01*
X181338Y4803D01*
X181299Y5000D01*
X181338Y5157D01*
X181377Y5275D01*
X181496Y5354D01*
X181692Y5433D01*
X181811Y5472D01*
X181968Y5511D01*
X182165Y5551D01*
X182401Y5629D01*
X182755Y5708D01*
X183031Y5826D01*
X183228Y5944D01*
X183425Y6062D01*
X183582Y6220D01*
X183700Y6417D01*
X183779Y6653D01*
X183818Y6889D01*
X183779Y7204D01*
X183622Y7480D01*
X183385Y7755D01*
X183110Y7913D01*
X182716Y8031D01*
X182244Y8070D01*
X181850Y8031D01*
X181535Y7992D01*
X181259Y7874D01*
X181023Y7716D01*
X180826Y7519D01*
X180708Y7322D01*
X180629Y7086D01*
X180590Y6811D01*
X181417Y6771D01*
X181496Y7047D01*
X181653Y7204D01*
X181889Y7322D01*
X182204Y7362D01*
X182559Y7322D01*
X182795Y7204D01*
X182913Y7086D01*
X182952Y6968D01*
X182913Y6811D01*
X182834Y6692D01*
X182716Y6653D01*
X182559Y6574D01*
X182322Y6496D01*
X182007Y6417D01*
X181732Y6338D01*
X181456Y6259D01*
X181259Y6181D01*
X181062Y6102D01*
X180826Y5944D01*
X180590Y5708D01*
X180472Y5393D01*
X180433Y5039D01*
X180472Y4685D01*
X180629Y4370D01*
X180905Y4094D01*
X181220Y3897D01*
X181653Y3779D01*
X182165Y3740D01*
X182559Y3779D01*
X182913Y3818D01*
X183188Y3937D01*
X183464Y4094D01*
X183661Y4291D01*
X183779Y4527D01*
X183897Y4842D01*
X183976Y5157D01*
X183976Y5157D01*
G37*
G36*
X177401Y7952D02*
X179724Y7992D01*
X177637Y7992D01*
X177401Y7952D01*
G37*
G36*
X177244Y7913D02*
X179724Y7992D01*
X177401Y7952D01*
X177244Y7913D01*
G37*
G36*
X176929Y7795D02*
X179724Y7992D01*
X177244Y7913D01*
X176929Y7795D01*
G37*
G36*
X176614Y7519D02*
X179724Y7992D01*
X176929Y7795D01*
X176614Y7519D01*
G37*
G36*
X177874Y7283D02*
X179724Y7992D01*
X176614Y7519D01*
X177874Y7283D01*
G37*
G36*
X178858Y7283D02*
X179724Y7992D01*
X177874Y7283D01*
X178858Y7283D01*
G37*
G36*
X177755Y7244D02*
X177874Y7283D01*
X176614Y7519D01*
X177755Y7244D01*
G37*
G36*
X177559Y7204D02*
X177755Y7244D01*
X176614Y7519D01*
X177559Y7204D01*
G37*
G36*
X176456Y7165D02*
X177559Y7204D01*
X176614Y7519D01*
X176456Y7165D01*
G37*
G36*
X177401Y7047D02*
X177559Y7204D01*
X176456Y7165D01*
X177401Y7047D01*
G37*
G36*
X177283Y6889D02*
X177401Y7047D01*
X176456Y7165D01*
X177283Y6889D01*
G37*
G36*
X176377Y6692D02*
X177283Y6889D01*
X176456Y7165D01*
X176377Y6692D01*
G37*
G36*
X177244Y6692D02*
X177283Y6889D01*
X176377Y6692D01*
X177244Y6692D01*
G37*
G36*
X177283Y6535D02*
X177244Y6692D01*
X176377Y6692D01*
X177283Y6535D01*
G37*
G36*
X177362Y6377D02*
X177283Y6535D01*
X176377Y6692D01*
X177362Y6377D01*
G37*
G36*
X176417Y6338D02*
X177362Y6377D01*
X176377Y6692D01*
X176417Y6338D01*
G37*
G36*
X177480Y6259D02*
X177362Y6377D01*
X176417Y6338D01*
X177480Y6259D01*
G37*
G36*
X177637Y6181D02*
X177480Y6259D01*
X176417Y6338D01*
X177637Y6181D01*
G37*
G36*
X177755Y6141D02*
X177637Y6181D01*
X176417Y6338D01*
X177755Y6141D01*
G37*
G36*
X177913Y6102D02*
X177755Y6141D01*
X176417Y6338D01*
X177913Y6102D01*
G37*
G36*
X178858Y6102D02*
X179724Y7992D01*
X178858Y7283D01*
X178858Y6102D01*
G37*
G36*
X176535Y6062D02*
X177913Y6102D01*
X176417Y6338D01*
X176535Y6062D01*
G37*
G36*
X176535Y6062D02*
X178858Y6102D01*
X177913Y6102D01*
X176535Y6062D01*
G37*
G36*
X176692Y5826D02*
X178858Y6102D01*
X176535Y6062D01*
X176692Y5826D01*
G37*
G36*
X176889Y5629D02*
X178858Y6102D01*
X176692Y5826D01*
X176889Y5629D01*
G37*
G36*
X177125Y5511D02*
X178858Y6102D01*
X176889Y5629D01*
X177125Y5511D01*
G37*
G36*
X177362Y5433D02*
X178858Y6102D01*
X177125Y5511D01*
X177362Y5433D01*
G37*
G36*
X177755Y5393D02*
X178858Y6102D01*
X177362Y5433D01*
X177755Y5393D01*
G37*
G36*
X178858Y5393D02*
X178858Y6102D01*
X177755Y5393D01*
X178858Y5393D01*
G37*
G36*
X178858Y5393D02*
X179724Y7992D01*
X178858Y6102D01*
X178858Y5393D01*
G37*
G36*
X178858Y3818D02*
X179724Y7992D01*
X178858Y5393D01*
X178858Y3818D01*
G37*
G36*
X179724Y3818D02*
X179724Y7992D01*
X178858Y3818D01*
X179724Y3818D01*
G37*
G36*
X172913Y5354D02*
X172913Y5354D01*
X172086Y5118D01*
X172204Y4803D01*
X172362Y4488D01*
X172519Y4251D01*
X172716Y4094D01*
X172992Y3937D01*
X173267Y3818D01*
X173543Y3740D01*
X173897Y3740D01*
X174291Y3779D01*
X174685Y3897D01*
X175000Y4055D01*
X175314Y4291D01*
X175551Y4606D01*
X175708Y5000D01*
X175826Y5393D01*
X175866Y5866D01*
X175826Y6377D01*
X175708Y6811D01*
X175551Y7165D01*
X175314Y7480D01*
X175000Y7755D01*
X174685Y7913D01*
X174291Y8031D01*
X173858Y8070D01*
X173464Y8031D01*
X173149Y7952D01*
X172834Y7795D01*
X172559Y7598D01*
X172322Y7283D01*
X172125Y6811D01*
X172952Y6653D01*
X173070Y6929D01*
X173267Y7165D01*
X173543Y7322D01*
X173897Y7362D01*
X174133Y7322D01*
X174330Y7283D01*
X174527Y7165D01*
X174685Y7007D01*
X174842Y6811D01*
X174921Y6574D01*
X174960Y6259D01*
X175000Y5944D01*
X174960Y5551D01*
X174921Y5236D01*
X174842Y5000D01*
X174685Y4803D01*
X174527Y4645D01*
X174330Y4527D01*
X174133Y4448D01*
X173897Y4448D01*
X173582Y4488D01*
X173267Y4645D01*
X173070Y4960D01*
X172913Y5354D01*
X172913Y5354D01*
G37*
G36*
X171535Y4921D02*
X171535Y4921D01*
X170748Y5039D01*
X170669Y4763D01*
X170551Y4566D01*
X170354Y4448D01*
X170118Y4409D01*
X169881Y4448D01*
X169685Y4606D01*
X169566Y4842D01*
X169527Y5118D01*
X169566Y5393D01*
X169685Y5590D01*
X169881Y5748D01*
X170078Y5787D01*
X170472Y5708D01*
X170393Y6417D01*
X170118Y6456D01*
X169881Y6535D01*
X169763Y6692D01*
X169724Y6929D01*
X169763Y7086D01*
X169842Y7244D01*
X170000Y7322D01*
X170196Y7362D01*
X170354Y7322D01*
X170551Y7244D01*
X170629Y7086D01*
X170708Y6850D01*
X171456Y6968D01*
X171338Y7283D01*
X171220Y7559D01*
X171023Y7755D01*
X170787Y7913D01*
X170472Y7992D01*
X170118Y8031D01*
X169842Y7992D01*
X169566Y7952D01*
X169370Y7834D01*
X169173Y7677D01*
X168937Y7322D01*
X168858Y6968D01*
X168897Y6732D01*
X169015Y6496D01*
X169212Y6299D01*
X169488Y6102D01*
X169173Y5984D01*
X168897Y5748D01*
X168700Y5433D01*
X168661Y5078D01*
X168700Y4803D01*
X168779Y4566D01*
X168897Y4330D01*
X169094Y4133D01*
X169291Y3976D01*
X169527Y3818D01*
X169803Y3779D01*
X170118Y3740D01*
X170393Y3740D01*
X170629Y3818D01*
X170866Y3937D01*
X171102Y4055D01*
X171259Y4251D01*
X171377Y4448D01*
X171496Y4685D01*
X171535Y4921D01*
X171535Y4921D01*
G37*
G36*
X168503Y2677D02*
X168503Y2677D01*
X168503Y3188D01*
X165000Y3188D01*
X165000Y2677D01*
X168503Y2677D01*
G37*
G36*
X164645Y3818D02*
X164645Y3818D01*
X164645Y7992D01*
X163779Y7992D01*
X163779Y4527D01*
X161574Y4527D01*
X161574Y3818D01*
X164645Y3818D01*
G37*
G36*
X160944Y3818D02*
X160944Y3818D01*
X160944Y7992D01*
X157716Y7992D01*
X157716Y7283D01*
X160078Y7283D01*
X160078Y6377D01*
X157874Y6377D01*
X157874Y5669D01*
X160078Y5669D01*
X160078Y4527D01*
X157637Y4527D01*
X157637Y3818D01*
X160944Y3818D01*
G37*
G36*
X154842Y7952D02*
X156929Y7992D01*
X155314Y7992D01*
X154842Y7952D01*
G37*
G36*
X154488Y7913D02*
X156929Y7992D01*
X154842Y7952D01*
X154488Y7913D01*
G37*
G36*
X154133Y7755D02*
X156929Y7992D01*
X154488Y7913D01*
X154133Y7755D01*
G37*
G36*
X153818Y7519D02*
X156929Y7992D01*
X154133Y7755D01*
X153818Y7519D01*
G37*
G36*
X155196Y7283D02*
X156929Y7992D01*
X153818Y7519D01*
X155196Y7283D01*
G37*
G36*
X156062Y7283D02*
X156929Y7992D01*
X155196Y7283D01*
X156062Y7283D01*
G37*
G36*
X154921Y7244D02*
X155196Y7283D01*
X153818Y7519D01*
X154921Y7244D01*
G37*
G36*
X155039Y7244D02*
X155196Y7283D01*
X154921Y7244D01*
X155039Y7244D01*
G37*
G36*
X153582Y7204D02*
X154921Y7244D01*
X153818Y7519D01*
X153582Y7204D01*
G37*
G36*
X154685Y7165D02*
X154921Y7244D01*
X153582Y7204D01*
X154685Y7165D01*
G37*
G36*
X154488Y7047D02*
X154685Y7165D01*
X153582Y7204D01*
X154488Y7047D01*
G37*
G36*
X153425Y6850D02*
X154488Y7047D01*
X153582Y7204D01*
X153425Y6850D01*
G37*
G36*
X154330Y6850D02*
X154488Y7047D01*
X153425Y6850D01*
X154330Y6850D01*
G37*
G36*
X154212Y6653D02*
X154330Y6850D01*
X153425Y6850D01*
X154212Y6653D01*
G37*
G36*
X153307Y6417D02*
X154212Y6653D01*
X153425Y6850D01*
X153307Y6417D01*
G37*
G36*
X154173Y6338D02*
X154212Y6653D01*
X153307Y6417D01*
X154173Y6338D01*
G37*
G36*
X154133Y5905D02*
X154173Y6338D01*
X153307Y6417D01*
X154133Y5905D01*
G37*
G36*
X153267Y5866D02*
X154133Y5905D01*
X153307Y6417D01*
X153267Y5866D01*
G37*
G36*
X154173Y5472D02*
X154133Y5905D01*
X153267Y5866D01*
X154173Y5472D01*
G37*
G36*
X153307Y5393D02*
X154173Y5472D01*
X153267Y5866D01*
X153307Y5393D01*
G37*
G36*
X154212Y5157D02*
X154173Y5472D01*
X153307Y5393D01*
X154212Y5157D01*
G37*
G36*
X153385Y4960D02*
X154212Y5157D01*
X153307Y5393D01*
X153385Y4960D01*
G37*
G36*
X154330Y4881D02*
X154212Y5157D01*
X153385Y4960D01*
X154330Y4881D01*
G37*
G36*
X154448Y4724D02*
X154330Y4881D01*
X153385Y4960D01*
X154448Y4724D01*
G37*
G36*
X153582Y4566D02*
X154448Y4724D01*
X153385Y4960D01*
X153582Y4566D01*
G37*
G36*
X154842Y4566D02*
X154448Y4724D01*
X153582Y4566D01*
X154842Y4566D01*
G37*
G36*
X155039Y4527D02*
X154842Y4566D01*
X153582Y4566D01*
X155039Y4527D01*
G37*
G36*
X156062Y4527D02*
X156929Y7992D01*
X156062Y7283D01*
X156062Y4527D01*
G37*
G36*
X153858Y4251D02*
X155039Y4527D01*
X153582Y4566D01*
X153858Y4251D01*
G37*
G36*
X153858Y4251D02*
X156062Y4527D01*
X155039Y4527D01*
X153858Y4251D01*
G37*
G36*
X154133Y4055D02*
X156062Y4527D01*
X153858Y4251D01*
X154133Y4055D01*
G37*
G36*
X154488Y3897D02*
X156062Y4527D01*
X154133Y4055D01*
X154488Y3897D01*
G37*
G36*
X154842Y3818D02*
X156062Y4527D01*
X154488Y3897D01*
X154842Y3818D01*
G37*
G36*
X156929Y3818D02*
X156062Y4527D01*
X154842Y3818D01*
X156929Y3818D01*
G37*
G36*
X156929Y3818D02*
X156929Y7992D01*
X156062Y4527D01*
X156929Y3818D01*
G37*
G36*
X151102Y5157D02*
X151102Y5157D01*
X150275Y5236D01*
X150157Y4881D01*
X149960Y4645D01*
X149685Y4488D01*
X149291Y4448D01*
X148937Y4488D01*
X148661Y4606D01*
X148464Y4803D01*
X148425Y5000D01*
X148464Y5157D01*
X148503Y5275D01*
X148622Y5354D01*
X148818Y5433D01*
X148937Y5472D01*
X149094Y5511D01*
X149291Y5551D01*
X149527Y5629D01*
X149881Y5708D01*
X150157Y5826D01*
X150354Y5944D01*
X150551Y6062D01*
X150708Y6220D01*
X150826Y6417D01*
X150905Y6653D01*
X150944Y6889D01*
X150905Y7204D01*
X150748Y7480D01*
X150511Y7755D01*
X150236Y7913D01*
X149842Y8031D01*
X149370Y8070D01*
X148976Y8031D01*
X148661Y7992D01*
X148385Y7874D01*
X148149Y7716D01*
X147952Y7519D01*
X147834Y7322D01*
X147755Y7086D01*
X147716Y6811D01*
X148543Y6771D01*
X148622Y7047D01*
X148779Y7204D01*
X149015Y7322D01*
X149330Y7362D01*
X149685Y7322D01*
X149921Y7204D01*
X150039Y7086D01*
X150078Y6968D01*
X150039Y6811D01*
X149960Y6692D01*
X149842Y6653D01*
X149685Y6574D01*
X149448Y6496D01*
X149133Y6417D01*
X148858Y6338D01*
X148582Y6259D01*
X148385Y6181D01*
X148188Y6102D01*
X147952Y5944D01*
X147716Y5708D01*
X147598Y5393D01*
X147559Y5039D01*
X147598Y4685D01*
X147755Y4370D01*
X148031Y4094D01*
X148346Y3897D01*
X148779Y3779D01*
X149291Y3740D01*
X149685Y3779D01*
X150039Y3818D01*
X150314Y3937D01*
X150590Y4094D01*
X150787Y4291D01*
X150905Y4527D01*
X151023Y4842D01*
X151102Y5157D01*
X151102Y5157D01*
G37*
G36*
X145393Y6850D02*
X145393Y6850D01*
X145393Y6220D01*
X145984Y6220D01*
X145984Y4960D01*
X145984Y4803D01*
X145984Y4645D01*
X145984Y4566D01*
X145984Y4527D01*
X145866Y4409D01*
X145748Y4370D01*
X145590Y4370D01*
X145354Y4448D01*
X145314Y3858D01*
X145629Y3779D01*
X145984Y3740D01*
X146181Y3740D01*
X146377Y3818D01*
X146535Y3897D01*
X146653Y4015D01*
X146732Y4133D01*
X146771Y4330D01*
X146811Y4527D01*
X146811Y4881D01*
X146811Y6220D01*
X147204Y6220D01*
X147204Y6850D01*
X146811Y6850D01*
X146811Y7440D01*
X145984Y7913D01*
X145984Y6850D01*
X145393Y6850D01*
G37*
G36*
X144133Y6889D02*
X143622Y6929D01*
X143149Y6889D01*
X144133Y6889D01*
G37*
G36*
X142795Y6811D02*
X144133Y6889D01*
X143149Y6889D01*
X142795Y6811D01*
G37*
G36*
X144527Y6692D02*
X144133Y6889D01*
X142795Y6811D01*
X144527Y6692D01*
G37*
G36*
X142598Y6653D02*
X144527Y6692D01*
X142795Y6811D01*
X142598Y6653D01*
G37*
G36*
X142440Y6456D02*
X144527Y6692D01*
X142598Y6653D01*
X142440Y6456D01*
G37*
G36*
X144803Y6417D02*
X144527Y6692D01*
X142440Y6456D01*
X144803Y6417D01*
G37*
G36*
X142362Y6338D02*
X144803Y6417D01*
X142440Y6456D01*
X142362Y6338D01*
G37*
G36*
X143700Y6299D02*
X144803Y6417D01*
X142362Y6338D01*
X143700Y6299D01*
G37*
G36*
X143425Y6259D02*
X143700Y6299D01*
X142362Y6338D01*
X143425Y6259D01*
G37*
G36*
X144015Y6220D02*
X144803Y6417D01*
X143700Y6299D01*
X144015Y6220D01*
G37*
G36*
X142362Y6181D02*
X143425Y6259D01*
X142362Y6338D01*
X142362Y6181D01*
G37*
G36*
X143267Y6181D02*
X143425Y6259D01*
X142362Y6181D01*
X143267Y6181D01*
G37*
G36*
X144133Y6102D02*
X144803Y6417D01*
X144015Y6220D01*
X144133Y6102D01*
G37*
G36*
X143188Y6062D02*
X143267Y6181D01*
X142362Y6181D01*
X143188Y6062D01*
G37*
G36*
X144960Y6023D02*
X144803Y6417D01*
X144133Y6102D01*
X144960Y6023D01*
G37*
G36*
X142322Y5984D02*
X143188Y6062D01*
X142362Y6181D01*
X142322Y5984D01*
G37*
G36*
X144212Y5905D02*
X144960Y6023D01*
X144133Y6102D01*
X144212Y5905D01*
G37*
G36*
X143149Y5866D02*
X143188Y6062D01*
X142322Y5984D01*
X143149Y5866D01*
G37*
G36*
X143149Y5787D02*
X143149Y5866D01*
X142322Y5984D01*
X143149Y5787D01*
G37*
G36*
X143267Y5748D02*
X143149Y5787D01*
X142322Y5984D01*
X143267Y5748D01*
G37*
G36*
X143464Y5669D02*
X143267Y5748D01*
X142322Y5984D01*
X143464Y5669D01*
G37*
G36*
X144330Y5511D02*
X143937Y5590D01*
X143464Y5669D01*
X144330Y5511D01*
G37*
G36*
X144606Y5393D02*
X144330Y5511D01*
X143464Y5669D01*
X144606Y5393D01*
G37*
G36*
X144803Y5275D02*
X144606Y5393D01*
X143464Y5669D01*
X144803Y5275D01*
G37*
G36*
X144803Y5275D02*
X143464Y5669D01*
X142322Y5984D01*
X144803Y5275D01*
G37*
G36*
X143149Y5236D02*
X144803Y5275D01*
X142322Y5984D01*
X143149Y5236D01*
G37*
G36*
X143346Y5196D02*
X144803Y5275D01*
X143149Y5236D01*
X143346Y5196D01*
G37*
G36*
X143661Y5118D02*
X144803Y5275D01*
X143346Y5196D01*
X143661Y5118D01*
G37*
G36*
X144960Y5078D02*
X144803Y5275D01*
X143661Y5118D01*
X144960Y5078D01*
G37*
G36*
X144094Y5000D02*
X144960Y5078D01*
X143661Y5118D01*
X144094Y5000D01*
G37*
G36*
X143149Y4881D02*
X143149Y5236D01*
X142322Y5984D01*
X143149Y4881D01*
G37*
G36*
X144212Y4881D02*
X144960Y5078D01*
X144094Y5000D01*
X144212Y4881D01*
G37*
G36*
X145039Y4881D02*
X144960Y5078D01*
X144212Y4881D01*
X145039Y4881D01*
G37*
G36*
X143188Y4724D02*
X143149Y4881D01*
X142322Y5984D01*
X143188Y4724D01*
G37*
G36*
X144251Y4724D02*
X145039Y4881D01*
X144212Y4881D01*
X144251Y4724D01*
G37*
G36*
X145078Y4645D02*
X145039Y4881D01*
X144251Y4724D01*
X145078Y4645D01*
G37*
G36*
X143267Y4606D02*
X143188Y4724D01*
X142322Y5984D01*
X143267Y4606D01*
G37*
G36*
X144212Y4606D02*
X145078Y4645D01*
X144251Y4724D01*
X144212Y4606D01*
G37*
G36*
X144133Y4488D02*
X145078Y4645D01*
X144212Y4606D01*
X144133Y4488D01*
G37*
G36*
X142322Y4448D02*
X143267Y4606D01*
X142322Y5984D01*
X142322Y4448D01*
G37*
G36*
X142322Y4448D02*
X143385Y4488D01*
X143267Y4606D01*
X142322Y4448D01*
G37*
G36*
X143582Y4409D02*
X143385Y4488D01*
X142322Y4448D01*
X143582Y4409D01*
G37*
G36*
X143976Y4409D02*
X145078Y4645D01*
X144133Y4488D01*
X143976Y4409D01*
G37*
G36*
X143779Y4370D02*
X143582Y4409D01*
X142322Y4448D01*
X143779Y4370D01*
G37*
G36*
X145000Y4291D02*
X145078Y4645D01*
X143976Y4409D01*
X145000Y4291D01*
G37*
G36*
X145000Y4291D02*
X143976Y4409D01*
X143779Y4370D01*
X145000Y4291D01*
G37*
G36*
X145000Y4291D02*
X143779Y4370D01*
X142322Y4448D01*
X145000Y4291D01*
G37*
G36*
X142283Y4212D02*
X145000Y4291D01*
X142322Y4448D01*
X142283Y4212D01*
G37*
G36*
X143070Y4173D02*
X145000Y4291D01*
X142283Y4212D01*
X143070Y4173D01*
G37*
G36*
X143031Y4094D02*
X143070Y4173D01*
X142283Y4212D01*
X143031Y4094D01*
G37*
G36*
X143267Y3976D02*
X145000Y4291D01*
X143070Y4173D01*
X143267Y3976D01*
G37*
G36*
X144803Y3976D02*
X145000Y4291D01*
X143267Y3976D01*
X144803Y3976D01*
G37*
G36*
X142992Y3937D02*
X143031Y4094D01*
X142283Y4212D01*
X142992Y3937D01*
G37*
G36*
X143503Y3858D02*
X144803Y3976D01*
X143267Y3976D01*
X143503Y3858D01*
G37*
G36*
X142125Y3818D02*
X142992Y3937D01*
X142283Y4212D01*
X142125Y3818D01*
G37*
G36*
X142952Y3818D02*
X142992Y3937D01*
X142125Y3818D01*
X142952Y3818D01*
G37*
G36*
X144448Y3818D02*
X144803Y3976D01*
X143503Y3858D01*
X144448Y3818D01*
G37*
G36*
X143779Y3779D02*
X144448Y3818D01*
X143503Y3858D01*
X143779Y3779D01*
G37*
G36*
X144015Y3740D02*
X144448Y3818D01*
X143779Y3779D01*
X144015Y3740D01*
G37*
G36*
X140039Y6850D02*
X140039Y6850D01*
X140039Y6220D01*
X140629Y6220D01*
X140629Y4960D01*
X140629Y4803D01*
X140629Y4645D01*
X140629Y4566D01*
X140629Y4527D01*
X140511Y4409D01*
X140393Y4370D01*
X140236Y4370D01*
X140000Y4448D01*
X139960Y3858D01*
X140275Y3779D01*
X140629Y3740D01*
X140826Y3740D01*
X141023Y3818D01*
X141181Y3897D01*
X141299Y4015D01*
X141377Y4133D01*
X141417Y4330D01*
X141456Y4527D01*
X141456Y4881D01*
X141456Y6220D01*
X141850Y6220D01*
X141850Y6850D01*
X141456Y6850D01*
X141456Y7440D01*
X140629Y7913D01*
X140629Y6850D01*
X140039Y6850D01*
G37*
G36*
X137440Y3818D02*
X137440Y3818D01*
X137440Y4251D01*
X137637Y4055D01*
X137874Y3897D01*
X138149Y3779D01*
X138464Y3740D01*
X138740Y3779D01*
X139015Y3858D01*
X139212Y4015D01*
X139370Y4251D01*
X139448Y4527D01*
X139488Y4921D01*
X139488Y6850D01*
X138661Y6850D01*
X138661Y5472D01*
X138661Y5157D01*
X138661Y4960D01*
X138622Y4763D01*
X138622Y4685D01*
X138543Y4566D01*
X138464Y4448D01*
X138307Y4370D01*
X138149Y4370D01*
X137952Y4409D01*
X137755Y4488D01*
X137637Y4606D01*
X137559Y4763D01*
X137519Y4881D01*
X137480Y5039D01*
X137480Y5275D01*
X137480Y5590D01*
X137480Y6850D01*
X136653Y6850D01*
X136653Y3818D01*
X137440Y3818D01*
G37*
G36*
X136102Y4645D02*
X136102Y4645D01*
X135275Y4763D01*
X135196Y4566D01*
X135039Y4409D01*
X134842Y4330D01*
X134566Y4291D01*
X134251Y4330D01*
X134055Y4409D01*
X133976Y4488D01*
X133937Y4645D01*
X134015Y4803D01*
X134094Y4842D01*
X134291Y4881D01*
X134763Y5000D01*
X135118Y5118D01*
X135393Y5196D01*
X135590Y5314D01*
X135748Y5433D01*
X135905Y5590D01*
X135944Y5787D01*
X135984Y5984D01*
X135944Y6181D01*
X135905Y6338D01*
X135787Y6496D01*
X135669Y6653D01*
X135472Y6771D01*
X135236Y6850D01*
X134960Y6889D01*
X134645Y6929D01*
X134330Y6929D01*
X134055Y6889D01*
X133858Y6811D01*
X133661Y6732D01*
X133385Y6456D01*
X133228Y6102D01*
X134055Y5984D01*
X134133Y6141D01*
X134251Y6259D01*
X134409Y6338D01*
X134645Y6377D01*
X134921Y6338D01*
X135118Y6299D01*
X135157Y6220D01*
X135196Y6102D01*
X135157Y6023D01*
X135118Y5984D01*
X135000Y5905D01*
X134842Y5866D01*
X134606Y5787D01*
X134330Y5748D01*
X134015Y5629D01*
X133740Y5551D01*
X133543Y5472D01*
X133385Y5354D01*
X133188Y5118D01*
X133110Y4763D01*
X133149Y4566D01*
X133188Y4370D01*
X133307Y4212D01*
X133464Y4055D01*
X133700Y3897D01*
X133937Y3818D01*
X134212Y3740D01*
X134566Y3740D01*
X135157Y3779D01*
X135590Y3976D01*
X135905Y4251D01*
X136102Y4645D01*
X136102Y4645D01*
G37*
G36*
X129763Y3818D02*
X129763Y3818D01*
X129763Y7283D01*
X131023Y7283D01*
X131023Y7992D01*
X127637Y7992D01*
X127637Y7283D01*
X128897Y7283D01*
X128897Y3818D01*
X129763Y3818D01*
G37*
G36*
X126338Y6889D02*
X125826Y6929D01*
X125354Y6889D01*
X126338Y6889D01*
G37*
G36*
X125000Y6811D02*
X126338Y6889D01*
X125354Y6889D01*
X125000Y6811D01*
G37*
G36*
X126732Y6692D02*
X126338Y6889D01*
X125000Y6811D01*
X126732Y6692D01*
G37*
G36*
X124803Y6653D02*
X126732Y6692D01*
X125000Y6811D01*
X124803Y6653D01*
G37*
G36*
X124645Y6456D02*
X126732Y6692D01*
X124803Y6653D01*
X124645Y6456D01*
G37*
G36*
X127007Y6417D02*
X126732Y6692D01*
X124645Y6456D01*
X127007Y6417D01*
G37*
G36*
X124566Y6338D02*
X127007Y6417D01*
X124645Y6456D01*
X124566Y6338D01*
G37*
G36*
X125905Y6299D02*
X127007Y6417D01*
X124566Y6338D01*
X125905Y6299D01*
G37*
G36*
X125629Y6259D02*
X125905Y6299D01*
X124566Y6338D01*
X125629Y6259D01*
G37*
G36*
X126220Y6220D02*
X127007Y6417D01*
X125905Y6299D01*
X126220Y6220D01*
G37*
G36*
X124566Y6181D02*
X125629Y6259D01*
X124566Y6338D01*
X124566Y6181D01*
G37*
G36*
X125472Y6181D02*
X125629Y6259D01*
X124566Y6181D01*
X125472Y6181D01*
G37*
G36*
X126338Y6102D02*
X127007Y6417D01*
X126220Y6220D01*
X126338Y6102D01*
G37*
G36*
X125393Y6062D02*
X125472Y6181D01*
X124566Y6181D01*
X125393Y6062D01*
G37*
G36*
X127165Y6023D02*
X127007Y6417D01*
X126338Y6102D01*
X127165Y6023D01*
G37*
G36*
X124527Y5984D02*
X125393Y6062D01*
X124566Y6181D01*
X124527Y5984D01*
G37*
G36*
X126417Y5905D02*
X127165Y6023D01*
X126338Y6102D01*
X126417Y5905D01*
G37*
G36*
X125354Y5866D02*
X125393Y6062D01*
X124527Y5984D01*
X125354Y5866D01*
G37*
G36*
X125354Y5787D02*
X125354Y5866D01*
X124527Y5984D01*
X125354Y5787D01*
G37*
G36*
X125472Y5748D02*
X125354Y5787D01*
X124527Y5984D01*
X125472Y5748D01*
G37*
G36*
X125669Y5669D02*
X125472Y5748D01*
X124527Y5984D01*
X125669Y5669D01*
G37*
G36*
X126535Y5511D02*
X126141Y5590D01*
X125669Y5669D01*
X126535Y5511D01*
G37*
G36*
X126811Y5393D02*
X126535Y5511D01*
X125669Y5669D01*
X126811Y5393D01*
G37*
G36*
X127007Y5275D02*
X126811Y5393D01*
X125669Y5669D01*
X127007Y5275D01*
G37*
G36*
X127007Y5275D02*
X125669Y5669D01*
X124527Y5984D01*
X127007Y5275D01*
G37*
G36*
X125354Y5236D02*
X127007Y5275D01*
X124527Y5984D01*
X125354Y5236D01*
G37*
G36*
X125551Y5196D02*
X127007Y5275D01*
X125354Y5236D01*
X125551Y5196D01*
G37*
G36*
X125866Y5118D02*
X127007Y5275D01*
X125551Y5196D01*
X125866Y5118D01*
G37*
G36*
X127165Y5078D02*
X127007Y5275D01*
X125866Y5118D01*
X127165Y5078D01*
G37*
G36*
X126299Y5000D02*
X127165Y5078D01*
X125866Y5118D01*
X126299Y5000D01*
G37*
G36*
X125354Y4881D02*
X125354Y5236D01*
X124527Y5984D01*
X125354Y4881D01*
G37*
G36*
X126417Y4881D02*
X127165Y5078D01*
X126299Y5000D01*
X126417Y4881D01*
G37*
G36*
X127244Y4881D02*
X127165Y5078D01*
X126417Y4881D01*
X127244Y4881D01*
G37*
G36*
X125393Y4724D02*
X125354Y4881D01*
X124527Y5984D01*
X125393Y4724D01*
G37*
G36*
X126456Y4724D02*
X127244Y4881D01*
X126417Y4881D01*
X126456Y4724D01*
G37*
G36*
X127283Y4645D02*
X127244Y4881D01*
X126456Y4724D01*
X127283Y4645D01*
G37*
G36*
X125472Y4606D02*
X125393Y4724D01*
X124527Y5984D01*
X125472Y4606D01*
G37*
G36*
X126417Y4606D02*
X127283Y4645D01*
X126456Y4724D01*
X126417Y4606D01*
G37*
G36*
X126338Y4488D02*
X127283Y4645D01*
X126417Y4606D01*
X126338Y4488D01*
G37*
G36*
X124527Y4448D02*
X125472Y4606D01*
X124527Y5984D01*
X124527Y4448D01*
G37*
G36*
X124527Y4448D02*
X125590Y4488D01*
X125472Y4606D01*
X124527Y4448D01*
G37*
G36*
X125787Y4409D02*
X125590Y4488D01*
X124527Y4448D01*
X125787Y4409D01*
G37*
G36*
X126181Y4409D02*
X127283Y4645D01*
X126338Y4488D01*
X126181Y4409D01*
G37*
G36*
X125984Y4370D02*
X125787Y4409D01*
X124527Y4448D01*
X125984Y4370D01*
G37*
G36*
X127204Y4291D02*
X127283Y4645D01*
X126181Y4409D01*
X127204Y4291D01*
G37*
G36*
X127204Y4291D02*
X126181Y4409D01*
X125984Y4370D01*
X127204Y4291D01*
G37*
G36*
X127204Y4291D02*
X125984Y4370D01*
X124527Y4448D01*
X127204Y4291D01*
G37*
G36*
X124488Y4212D02*
X127204Y4291D01*
X124527Y4448D01*
X124488Y4212D01*
G37*
G36*
X125275Y4173D02*
X127204Y4291D01*
X124488Y4212D01*
X125275Y4173D01*
G37*
G36*
X125236Y4094D02*
X125275Y4173D01*
X124488Y4212D01*
X125236Y4094D01*
G37*
G36*
X125472Y3976D02*
X127204Y4291D01*
X125275Y4173D01*
X125472Y3976D01*
G37*
G36*
X127007Y3976D02*
X127204Y4291D01*
X125472Y3976D01*
X127007Y3976D01*
G37*
G36*
X125196Y3937D02*
X125236Y4094D01*
X124488Y4212D01*
X125196Y3937D01*
G37*
G36*
X125708Y3858D02*
X127007Y3976D01*
X125472Y3976D01*
X125708Y3858D01*
G37*
G36*
X124330Y3818D02*
X125196Y3937D01*
X124488Y4212D01*
X124330Y3818D01*
G37*
G36*
X125157Y3818D02*
X125196Y3937D01*
X124330Y3818D01*
X125157Y3818D01*
G37*
G36*
X126653Y3818D02*
X127007Y3976D01*
X125708Y3858D01*
X126653Y3818D01*
G37*
G36*
X125984Y3779D02*
X126653Y3818D01*
X125708Y3858D01*
X125984Y3779D01*
G37*
G36*
X126220Y3740D02*
X126653Y3818D01*
X125984Y3779D01*
X126220Y3740D01*
G37*
G36*
X122244Y6889D02*
X121968Y6929D01*
X121692Y6889D01*
X122244Y6889D01*
G37*
G36*
X121456Y6811D02*
X122244Y6889D01*
X121692Y6889D01*
X121456Y6811D01*
G37*
G36*
X122440Y6811D02*
X122244Y6889D01*
X121456Y6811D01*
X122440Y6811D01*
G37*
G36*
X121220Y6692D02*
X122440Y6811D01*
X121456Y6811D01*
X121220Y6692D01*
G37*
G36*
X122677Y6692D02*
X122440Y6811D01*
X121220Y6692D01*
X122677Y6692D01*
G37*
G36*
X121023Y6535D02*
X122677Y6692D01*
X121220Y6692D01*
X121023Y6535D01*
G37*
G36*
X122874Y6496D02*
X122677Y6692D01*
X121023Y6535D01*
X122874Y6496D01*
G37*
G36*
X122874Y6496D02*
X123700Y7992D01*
X122874Y7992D01*
X122874Y6496D01*
G37*
G36*
X120866Y6299D02*
X122874Y6496D01*
X121023Y6535D01*
X120866Y6299D01*
G37*
G36*
X122165Y6299D02*
X122874Y6496D01*
X120866Y6299D01*
X122165Y6299D01*
G37*
G36*
X121889Y6220D02*
X122165Y6299D01*
X120866Y6299D01*
X121889Y6220D01*
G37*
G36*
X122440Y6220D02*
X122874Y6496D01*
X122165Y6299D01*
X122440Y6220D01*
G37*
G36*
X121692Y6062D02*
X121889Y6220D01*
X120866Y6299D01*
X121692Y6062D01*
G37*
G36*
X122677Y6062D02*
X122874Y6496D01*
X122440Y6220D01*
X122677Y6062D01*
G37*
G36*
X122677Y6062D02*
X123700Y7992D01*
X122874Y6496D01*
X122677Y6062D01*
G37*
G36*
X120748Y6023D02*
X121692Y6062D01*
X120866Y6299D01*
X120748Y6023D01*
G37*
G36*
X122834Y5787D02*
X123700Y7992D01*
X122677Y6062D01*
X122834Y5787D01*
G37*
G36*
X121535Y5748D02*
X121692Y6062D01*
X120748Y6023D01*
X121535Y5748D01*
G37*
G36*
X122874Y5393D02*
X123700Y7992D01*
X122834Y5787D01*
X122874Y5393D01*
G37*
G36*
X120669Y5354D02*
X121535Y5748D01*
X120748Y6023D01*
X120669Y5354D01*
G37*
G36*
X121496Y5314D02*
X121535Y5748D01*
X120669Y5354D01*
X121496Y5314D01*
G37*
G36*
X122834Y4960D02*
X123700Y7992D01*
X122874Y5393D01*
X122834Y4960D01*
G37*
G36*
X121535Y4881D02*
X121496Y5314D01*
X120669Y5354D01*
X121535Y4881D01*
G37*
G36*
X120748Y4685D02*
X121535Y4881D01*
X120669Y5354D01*
X120748Y4685D01*
G37*
G36*
X121692Y4606D02*
X121535Y4881D01*
X120748Y4685D01*
X121692Y4606D01*
G37*
G36*
X120866Y4409D02*
X121692Y4606D01*
X120748Y4685D01*
X120866Y4409D01*
G37*
G36*
X121889Y4409D02*
X121692Y4606D01*
X120866Y4409D01*
X121889Y4409D01*
G37*
G36*
X122165Y4370D02*
X121889Y4409D01*
X120866Y4409D01*
X122165Y4370D01*
G37*
G36*
X122913Y4251D02*
X123700Y7992D01*
X122834Y4960D01*
X122913Y4251D01*
G37*
G36*
X122913Y4251D02*
X122834Y4960D01*
X122716Y4685D01*
X122913Y4251D01*
G37*
G36*
X122913Y4251D02*
X122716Y4685D01*
X122598Y4527D01*
X122913Y4251D01*
G37*
G36*
X122913Y4251D02*
X122598Y4527D01*
X122480Y4448D01*
X122913Y4251D01*
G37*
G36*
X122913Y4251D02*
X122480Y4448D01*
X122322Y4370D01*
X122913Y4251D01*
G37*
G36*
X122913Y4251D02*
X122322Y4370D01*
X122165Y4370D01*
X122913Y4251D01*
G37*
G36*
X122913Y4251D02*
X122165Y4370D01*
X120866Y4409D01*
X122913Y4251D01*
G37*
G36*
X121023Y4173D02*
X122913Y4251D01*
X120866Y4409D01*
X121023Y4173D01*
G37*
G36*
X122716Y4015D02*
X122913Y4251D01*
X121023Y4173D01*
X122716Y4015D01*
G37*
G36*
X121220Y3976D02*
X122716Y4015D01*
X121023Y4173D01*
X121220Y3976D01*
G37*
G36*
X121456Y3858D02*
X122716Y4015D01*
X121220Y3976D01*
X121456Y3858D01*
G37*
G36*
X122480Y3858D02*
X122716Y4015D01*
X121456Y3858D01*
X122480Y3858D01*
G37*
G36*
X122913Y3818D02*
X123700Y7992D01*
X122913Y4251D01*
X122913Y3818D01*
G37*
G36*
X123700Y3818D02*
X123700Y7992D01*
X122913Y3818D01*
X123700Y3818D01*
G37*
G36*
X121692Y3779D02*
X122480Y3858D01*
X121456Y3858D01*
X121692Y3779D01*
G37*
G36*
X122204Y3779D02*
X122480Y3858D01*
X121692Y3779D01*
X122204Y3779D01*
G37*
G36*
X121968Y3740D02*
X122204Y3779D01*
X121692Y3779D01*
X121968Y3740D01*
G37*
G36*
X120000Y3818D02*
X120000Y3818D01*
X120000Y7992D01*
X119173Y7992D01*
X119173Y3818D01*
X120000Y3818D01*
G37*
G36*
X117598Y6889D02*
X117086Y6929D01*
X116614Y6889D01*
X117598Y6889D01*
G37*
G36*
X116259Y6811D02*
X117598Y6889D01*
X116614Y6889D01*
X116259Y6811D01*
G37*
G36*
X117992Y6692D02*
X117598Y6889D01*
X116259Y6811D01*
X117992Y6692D01*
G37*
G36*
X116062Y6653D02*
X117992Y6692D01*
X116259Y6811D01*
X116062Y6653D01*
G37*
G36*
X115905Y6456D02*
X117992Y6692D01*
X116062Y6653D01*
X115905Y6456D01*
G37*
G36*
X118267Y6417D02*
X117992Y6692D01*
X115905Y6456D01*
X118267Y6417D01*
G37*
G36*
X115826Y6338D02*
X118267Y6417D01*
X115905Y6456D01*
X115826Y6338D01*
G37*
G36*
X117165Y6299D02*
X118267Y6417D01*
X115826Y6338D01*
X117165Y6299D01*
G37*
G36*
X116889Y6259D02*
X117165Y6299D01*
X115826Y6338D01*
X116889Y6259D01*
G37*
G36*
X117480Y6220D02*
X118267Y6417D01*
X117165Y6299D01*
X117480Y6220D01*
G37*
G36*
X115826Y6181D02*
X116889Y6259D01*
X115826Y6338D01*
X115826Y6181D01*
G37*
G36*
X116732Y6181D02*
X116889Y6259D01*
X115826Y6181D01*
X116732Y6181D01*
G37*
G36*
X117598Y6102D02*
X118267Y6417D01*
X117480Y6220D01*
X117598Y6102D01*
G37*
G36*
X116653Y6062D02*
X116732Y6181D01*
X115826Y6181D01*
X116653Y6062D01*
G37*
G36*
X118425Y6023D02*
X118267Y6417D01*
X117598Y6102D01*
X118425Y6023D01*
G37*
G36*
X115787Y5984D02*
X116653Y6062D01*
X115826Y6181D01*
X115787Y5984D01*
G37*
G36*
X117677Y5905D02*
X118425Y6023D01*
X117598Y6102D01*
X117677Y5905D01*
G37*
G36*
X116614Y5866D02*
X116653Y6062D01*
X115787Y5984D01*
X116614Y5866D01*
G37*
G36*
X116614Y5787D02*
X116614Y5866D01*
X115787Y5984D01*
X116614Y5787D01*
G37*
G36*
X116732Y5748D02*
X116614Y5787D01*
X115787Y5984D01*
X116732Y5748D01*
G37*
G36*
X116929Y5669D02*
X116732Y5748D01*
X115787Y5984D01*
X116929Y5669D01*
G37*
G36*
X117795Y5511D02*
X117401Y5590D01*
X116929Y5669D01*
X117795Y5511D01*
G37*
G36*
X118070Y5393D02*
X117795Y5511D01*
X116929Y5669D01*
X118070Y5393D01*
G37*
G36*
X118267Y5275D02*
X118070Y5393D01*
X116929Y5669D01*
X118267Y5275D01*
G37*
G36*
X118267Y5275D02*
X116929Y5669D01*
X115787Y5984D01*
X118267Y5275D01*
G37*
G36*
X116614Y5236D02*
X118267Y5275D01*
X115787Y5984D01*
X116614Y5236D01*
G37*
G36*
X116811Y5196D02*
X118267Y5275D01*
X116614Y5236D01*
X116811Y5196D01*
G37*
G36*
X117125Y5118D02*
X118267Y5275D01*
X116811Y5196D01*
X117125Y5118D01*
G37*
G36*
X118425Y5078D02*
X118267Y5275D01*
X117125Y5118D01*
X118425Y5078D01*
G37*
G36*
X117559Y5000D02*
X118425Y5078D01*
X117125Y5118D01*
X117559Y5000D01*
G37*
G36*
X116614Y4881D02*
X116614Y5236D01*
X115787Y5984D01*
X116614Y4881D01*
G37*
G36*
X117677Y4881D02*
X118425Y5078D01*
X117559Y5000D01*
X117677Y4881D01*
G37*
G36*
X118503Y4881D02*
X118425Y5078D01*
X117677Y4881D01*
X118503Y4881D01*
G37*
G36*
X116653Y4724D02*
X116614Y4881D01*
X115787Y5984D01*
X116653Y4724D01*
G37*
G36*
X117716Y4724D02*
X118503Y4881D01*
X117677Y4881D01*
X117716Y4724D01*
G37*
G36*
X118543Y4645D02*
X118503Y4881D01*
X117716Y4724D01*
X118543Y4645D01*
G37*
G36*
X116732Y4606D02*
X116653Y4724D01*
X115787Y5984D01*
X116732Y4606D01*
G37*
G36*
X117677Y4606D02*
X118543Y4645D01*
X117716Y4724D01*
X117677Y4606D01*
G37*
G36*
X117598Y4488D02*
X118543Y4645D01*
X117677Y4606D01*
X117598Y4488D01*
G37*
G36*
X115787Y4448D02*
X116732Y4606D01*
X115787Y5984D01*
X115787Y4448D01*
G37*
G36*
X115787Y4448D02*
X116850Y4488D01*
X116732Y4606D01*
X115787Y4448D01*
G37*
G36*
X117047Y4409D02*
X116850Y4488D01*
X115787Y4448D01*
X117047Y4409D01*
G37*
G36*
X117440Y4409D02*
X118543Y4645D01*
X117598Y4488D01*
X117440Y4409D01*
G37*
G36*
X117244Y4370D02*
X117047Y4409D01*
X115787Y4448D01*
X117244Y4370D01*
G37*
G36*
X118464Y4291D02*
X118543Y4645D01*
X117440Y4409D01*
X118464Y4291D01*
G37*
G36*
X118464Y4291D02*
X117440Y4409D01*
X117244Y4370D01*
X118464Y4291D01*
G37*
G36*
X118464Y4291D02*
X117244Y4370D01*
X115787Y4448D01*
X118464Y4291D01*
G37*
G36*
X115748Y4212D02*
X118464Y4291D01*
X115787Y4448D01*
X115748Y4212D01*
G37*
G36*
X116535Y4173D02*
X118464Y4291D01*
X115748Y4212D01*
X116535Y4173D01*
G37*
G36*
X116496Y4094D02*
X116535Y4173D01*
X115748Y4212D01*
X116496Y4094D01*
G37*
G36*
X116732Y3976D02*
X118464Y4291D01*
X116535Y4173D01*
X116732Y3976D01*
G37*
G36*
X118267Y3976D02*
X118464Y4291D01*
X116732Y3976D01*
X118267Y3976D01*
G37*
G36*
X116456Y3937D02*
X116496Y4094D01*
X115748Y4212D01*
X116456Y3937D01*
G37*
G36*
X116968Y3858D02*
X118267Y3976D01*
X116732Y3976D01*
X116968Y3858D01*
G37*
G36*
X115590Y3818D02*
X116456Y3937D01*
X115748Y4212D01*
X115590Y3818D01*
G37*
G36*
X116417Y3818D02*
X116456Y3937D01*
X115590Y3818D01*
X116417Y3818D01*
G37*
G36*
X117913Y3818D02*
X118267Y3976D01*
X116968Y3858D01*
X117913Y3818D01*
G37*
G36*
X117244Y3779D02*
X117913Y3818D01*
X116968Y3858D01*
X117244Y3779D01*
G37*
G36*
X117480Y3740D02*
X117913Y3818D01*
X117244Y3779D01*
X117480Y3740D01*
G37*
G36*
X112913Y3818D02*
X112913Y3818D01*
X112913Y4251D01*
X113110Y4055D01*
X113346Y3897D01*
X113622Y3779D01*
X113937Y3740D01*
X114212Y3779D01*
X114488Y3858D01*
X114685Y4015D01*
X114842Y4251D01*
X114921Y4527D01*
X114960Y4921D01*
X114960Y6850D01*
X114133Y6850D01*
X114133Y5472D01*
X114133Y5157D01*
X114133Y4960D01*
X114094Y4763D01*
X114094Y4685D01*
X114015Y4566D01*
X113937Y4448D01*
X113779Y4370D01*
X113622Y4370D01*
X113425Y4409D01*
X113228Y4488D01*
X113110Y4606D01*
X113031Y4763D01*
X112992Y4881D01*
X112952Y5039D01*
X112952Y5275D01*
X112952Y5590D01*
X112952Y6850D01*
X112125Y6850D01*
X112125Y3818D01*
X112913Y3818D01*
G37*
G36*
X108740Y3818D02*
X108740Y3818D01*
X109960Y6850D01*
X109094Y6850D01*
X108582Y5314D01*
X108385Y4803D01*
X108346Y4960D01*
X108307Y5039D01*
X108228Y5314D01*
X107677Y6850D01*
X106811Y6850D01*
X108031Y3818D01*
X108740Y3818D01*
G37*
G36*
X103543Y4566D02*
X103543Y4566D01*
X103543Y3818D01*
X106496Y3818D01*
X106417Y4212D01*
X106220Y4606D01*
X106062Y4803D01*
X105866Y5039D01*
X105590Y5314D01*
X105275Y5629D01*
X105000Y5866D01*
X104803Y6062D01*
X104685Y6181D01*
X104566Y6299D01*
X104448Y6574D01*
X104409Y6811D01*
X104448Y7047D01*
X104566Y7204D01*
X104724Y7322D01*
X105000Y7362D01*
X105236Y7322D01*
X105393Y7204D01*
X105551Y7007D01*
X105590Y6732D01*
X106417Y6811D01*
X106377Y7125D01*
X106259Y7362D01*
X106141Y7559D01*
X105944Y7755D01*
X105511Y7952D01*
X104960Y8031D01*
X104645Y7992D01*
X104370Y7952D01*
X104133Y7834D01*
X103897Y7677D01*
X103740Y7519D01*
X103622Y7322D01*
X103582Y7086D01*
X103543Y6850D01*
X103582Y6574D01*
X103661Y6338D01*
X103779Y6062D01*
X103976Y5787D01*
X104212Y5551D01*
X104566Y5236D01*
X104881Y4960D01*
X105078Y4803D01*
X105236Y4566D01*
X103543Y4566D01*
G37*
G36*
X102874Y3818D02*
X102874Y3818D01*
X102874Y4606D01*
X102047Y4606D01*
X102047Y3818D01*
X102874Y3818D01*
G37*
G36*
X99291Y7952D02*
X100118Y7992D01*
X99763Y8031D01*
X99291Y7952D01*
G37*
G36*
X100393Y7913D02*
X100118Y7992D01*
X99291Y7952D01*
X100393Y7913D01*
G37*
G36*
X98937Y7755D02*
X100393Y7913D01*
X99291Y7952D01*
X98937Y7755D01*
G37*
G36*
X100669Y7755D02*
X100393Y7913D01*
X98937Y7755D01*
X100669Y7755D01*
G37*
G36*
X100944Y7519D02*
X100669Y7755D01*
X98937Y7755D01*
X100944Y7519D01*
G37*
G36*
X98661Y7440D02*
X100944Y7519D01*
X98937Y7755D01*
X98661Y7440D01*
G37*
G36*
X99842Y7362D02*
X100944Y7519D01*
X98661Y7440D01*
X99842Y7362D01*
G37*
G36*
X99606Y7322D02*
X99842Y7362D01*
X98661Y7440D01*
X99606Y7322D01*
G37*
G36*
X100078Y7283D02*
X100944Y7519D01*
X99842Y7362D01*
X100078Y7283D01*
G37*
G36*
X99448Y7244D02*
X99606Y7322D01*
X98661Y7440D01*
X99448Y7244D01*
G37*
G36*
X101141Y7204D02*
X100944Y7519D01*
X100078Y7283D01*
X101141Y7204D01*
G37*
G36*
X100314Y7125D02*
X101141Y7204D01*
X100078Y7283D01*
X100314Y7125D01*
G37*
G36*
X99330Y7086D02*
X99448Y7244D01*
X98661Y7440D01*
X99330Y7086D01*
G37*
G36*
X98503Y6968D02*
X99330Y7086D01*
X98661Y7440D01*
X98503Y6968D01*
G37*
G36*
X100393Y6968D02*
X101141Y7204D01*
X100314Y7125D01*
X100393Y6968D01*
G37*
G36*
X99291Y6889D02*
X99330Y7086D01*
X98503Y6968D01*
X99291Y6889D01*
G37*
G36*
X101259Y6850D02*
X101141Y7204D01*
X100393Y6968D01*
X101259Y6850D01*
G37*
G36*
X100472Y6771D02*
X101259Y6850D01*
X100393Y6968D01*
X100472Y6771D01*
G37*
G36*
X100000Y6496D02*
X99763Y6535D01*
X99488Y6496D01*
X100000Y6496D01*
G37*
G36*
X100551Y6496D02*
X101259Y6850D01*
X100472Y6771D01*
X100551Y6496D01*
G37*
G36*
X100196Y6456D02*
X100000Y6496D01*
X99488Y6496D01*
X100196Y6456D01*
G37*
G36*
X99251Y6417D02*
X100196Y6456D01*
X99488Y6496D01*
X99251Y6417D01*
G37*
G36*
X101338Y6377D02*
X101259Y6850D01*
X100551Y6496D01*
X101338Y6377D01*
G37*
G36*
X100393Y6338D02*
X100196Y6456D01*
X99251Y6417D01*
X100393Y6338D01*
G37*
G36*
X99015Y6299D02*
X100393Y6338D01*
X99251Y6417D01*
X99015Y6299D01*
G37*
G36*
X100590Y6181D02*
X100393Y6338D01*
X99015Y6299D01*
X100590Y6181D01*
G37*
G36*
X100590Y6181D02*
X101338Y6377D01*
X100551Y6496D01*
X100590Y6181D01*
G37*
G36*
X98818Y6141D02*
X100590Y6181D01*
X99015Y6299D01*
X98818Y6141D01*
G37*
G36*
X98661Y5944D02*
X100590Y6181D01*
X98818Y6141D01*
X98661Y5944D01*
G37*
G36*
X99881Y5944D02*
X101338Y6377D01*
X100590Y6181D01*
X99881Y5944D01*
G37*
G36*
X99881Y5944D02*
X100590Y6181D01*
X98661Y5944D01*
X99881Y5944D01*
G37*
G36*
X99645Y5905D02*
X99881Y5944D01*
X98661Y5944D01*
X99645Y5905D01*
G37*
G36*
X100118Y5905D02*
X101338Y6377D01*
X99881Y5944D01*
X100118Y5905D01*
G37*
G36*
X101377Y5866D02*
X101338Y6377D01*
X100118Y5905D01*
X101377Y5866D01*
G37*
G36*
X99448Y5748D02*
X99645Y5905D01*
X98661Y5944D01*
X99448Y5748D01*
G37*
G36*
X100314Y5748D02*
X101377Y5866D01*
X100118Y5905D01*
X100314Y5748D01*
G37*
G36*
X98503Y5708D02*
X99448Y5748D01*
X98661Y5944D01*
X98503Y5708D01*
G37*
G36*
X100472Y5551D02*
X101377Y5866D01*
X100314Y5748D01*
X100472Y5551D01*
G37*
G36*
X99291Y5511D02*
X99448Y5748D01*
X98503Y5708D01*
X99291Y5511D01*
G37*
G36*
X101338Y5314D02*
X101377Y5866D01*
X100472Y5551D01*
X101338Y5314D01*
G37*
G36*
X100511Y5236D02*
X101338Y5314D01*
X100472Y5551D01*
X100511Y5236D01*
G37*
G36*
X98425Y5157D02*
X99291Y5511D01*
X98503Y5708D01*
X98425Y5157D01*
G37*
G36*
X99251Y5157D02*
X99291Y5511D01*
X98425Y5157D01*
X99251Y5157D01*
G37*
G36*
X100472Y4881D02*
X101338Y5314D01*
X100511Y5236D01*
X100472Y4881D01*
G37*
G36*
X101259Y4881D02*
X101338Y5314D01*
X100472Y4881D01*
X101259Y4881D01*
G37*
G36*
X99291Y4803D02*
X99251Y5157D01*
X98425Y5157D01*
X99291Y4803D01*
G37*
G36*
X100314Y4606D02*
X101259Y4881D01*
X100472Y4881D01*
X100314Y4606D01*
G37*
G36*
X98503Y4566D02*
X99291Y4803D01*
X98425Y5157D01*
X98503Y4566D01*
G37*
G36*
X99409Y4566D02*
X99291Y4803D01*
X98503Y4566D01*
X99409Y4566D01*
G37*
G36*
X101141Y4527D02*
X101259Y4881D01*
X100314Y4606D01*
X101141Y4527D01*
G37*
G36*
X99606Y4448D02*
X99409Y4566D01*
X98503Y4566D01*
X99606Y4448D01*
G37*
G36*
X100078Y4448D02*
X101141Y4527D01*
X100314Y4606D01*
X100078Y4448D01*
G37*
G36*
X99842Y4409D02*
X99606Y4448D01*
X98503Y4566D01*
X99842Y4409D01*
G37*
G36*
X99842Y4409D02*
X101141Y4527D01*
X100078Y4448D01*
X99842Y4409D01*
G37*
G36*
X98661Y4330D02*
X99842Y4409D01*
X98503Y4566D01*
X98661Y4330D01*
G37*
G36*
X100944Y4212D02*
X101141Y4527D01*
X99842Y4409D01*
X100944Y4212D01*
G37*
G36*
X100944Y4212D02*
X99842Y4409D01*
X98661Y4330D01*
X100944Y4212D01*
G37*
G36*
X98818Y4133D02*
X100944Y4212D01*
X98661Y4330D01*
X98818Y4133D01*
G37*
G36*
X100708Y4015D02*
X100944Y4212D01*
X98818Y4133D01*
X100708Y4015D01*
G37*
G36*
X99055Y3937D02*
X100708Y4015D01*
X98818Y4133D01*
X99055Y3937D01*
G37*
G36*
X100472Y3858D02*
X100708Y4015D01*
X99055Y3937D01*
X100472Y3858D01*
G37*
G36*
X99291Y3818D02*
X100472Y3858D01*
X99055Y3937D01*
X99291Y3818D01*
G37*
G36*
X99527Y3779D02*
X100472Y3858D01*
X99291Y3818D01*
X99527Y3779D01*
G37*
G36*
X100157Y3779D02*
X100472Y3858D01*
X99527Y3779D01*
X100157Y3779D01*
G37*
G36*
X99842Y3740D02*
X100157Y3779D01*
X99527Y3779D01*
X99842Y3740D01*
G37*
G36*
X184242Y18907D02*
X184242Y18907D01*
X183415Y18986D01*
X183297Y18631D01*
X183100Y18395D01*
X182824Y18238D01*
X182431Y18198D01*
X182076Y18238D01*
X181801Y18356D01*
X181604Y18553D01*
X181564Y18750D01*
X181604Y18907D01*
X181643Y19025D01*
X181761Y19104D01*
X181958Y19183D01*
X182076Y19222D01*
X182234Y19261D01*
X182431Y19301D01*
X182667Y19379D01*
X183021Y19458D01*
X183297Y19576D01*
X183494Y19694D01*
X183690Y19812D01*
X183848Y19970D01*
X183966Y20167D01*
X184045Y20403D01*
X184084Y20639D01*
X184045Y20954D01*
X183887Y21230D01*
X183651Y21505D01*
X183375Y21663D01*
X182982Y21781D01*
X182509Y21820D01*
X182116Y21781D01*
X181801Y21742D01*
X181525Y21624D01*
X181289Y21466D01*
X181092Y21269D01*
X180974Y21072D01*
X180895Y20836D01*
X180856Y20561D01*
X181683Y20521D01*
X181761Y20797D01*
X181919Y20954D01*
X182155Y21072D01*
X182470Y21112D01*
X182824Y21072D01*
X183061Y20954D01*
X183179Y20836D01*
X183218Y20718D01*
X183179Y20561D01*
X183100Y20442D01*
X182982Y20403D01*
X182824Y20324D01*
X182588Y20246D01*
X182273Y20167D01*
X181998Y20088D01*
X181722Y20009D01*
X181525Y19931D01*
X181328Y19852D01*
X181092Y19694D01*
X180856Y19458D01*
X180738Y19143D01*
X180698Y18789D01*
X180738Y18435D01*
X180895Y18120D01*
X181171Y17844D01*
X181486Y17647D01*
X181919Y17529D01*
X182431Y17490D01*
X182824Y17529D01*
X183179Y17568D01*
X183454Y17687D01*
X183730Y17844D01*
X183927Y18041D01*
X184045Y18277D01*
X184163Y18592D01*
X184242Y18907D01*
X184242Y18907D01*
G37*
G36*
X178533Y20600D02*
X178533Y20600D01*
X178533Y19970D01*
X179124Y19970D01*
X179124Y18710D01*
X179124Y18553D01*
X179124Y18395D01*
X179124Y18316D01*
X179124Y18277D01*
X179005Y18159D01*
X178887Y18120D01*
X178730Y18120D01*
X178494Y18198D01*
X178454Y17608D01*
X178769Y17529D01*
X179124Y17490D01*
X179320Y17490D01*
X179517Y17568D01*
X179675Y17647D01*
X179793Y17765D01*
X179872Y17883D01*
X179911Y18080D01*
X179950Y18277D01*
X179950Y18631D01*
X179950Y19970D01*
X180344Y19970D01*
X180344Y20600D01*
X179950Y20600D01*
X179950Y21190D01*
X179124Y21663D01*
X179124Y20600D01*
X178533Y20600D01*
G37*
G36*
X177273Y20639D02*
X176761Y20679D01*
X176289Y20639D01*
X177273Y20639D01*
G37*
G36*
X175935Y20561D02*
X177273Y20639D01*
X176289Y20639D01*
X175935Y20561D01*
G37*
G36*
X177667Y20442D02*
X177273Y20639D01*
X175935Y20561D01*
X177667Y20442D01*
G37*
G36*
X175738Y20403D02*
X177667Y20442D01*
X175935Y20561D01*
X175738Y20403D01*
G37*
G36*
X175580Y20206D02*
X177667Y20442D01*
X175738Y20403D01*
X175580Y20206D01*
G37*
G36*
X177942Y20167D02*
X177667Y20442D01*
X175580Y20206D01*
X177942Y20167D01*
G37*
G36*
X175501Y20088D02*
X177942Y20167D01*
X175580Y20206D01*
X175501Y20088D01*
G37*
G36*
X176840Y20049D02*
X177942Y20167D01*
X175501Y20088D01*
X176840Y20049D01*
G37*
G36*
X176564Y20009D02*
X176840Y20049D01*
X175501Y20088D01*
X176564Y20009D01*
G37*
G36*
X177155Y19970D02*
X177942Y20167D01*
X176840Y20049D01*
X177155Y19970D01*
G37*
G36*
X175501Y19931D02*
X176564Y20009D01*
X175501Y20088D01*
X175501Y19931D01*
G37*
G36*
X176407Y19931D02*
X176564Y20009D01*
X175501Y19931D01*
X176407Y19931D01*
G37*
G36*
X177273Y19852D02*
X177942Y20167D01*
X177155Y19970D01*
X177273Y19852D01*
G37*
G36*
X176328Y19812D02*
X176407Y19931D01*
X175501Y19931D01*
X176328Y19812D01*
G37*
G36*
X178100Y19773D02*
X177942Y20167D01*
X177273Y19852D01*
X178100Y19773D01*
G37*
G36*
X175462Y19734D02*
X176328Y19812D01*
X175501Y19931D01*
X175462Y19734D01*
G37*
G36*
X177352Y19655D02*
X178100Y19773D01*
X177273Y19852D01*
X177352Y19655D01*
G37*
G36*
X176289Y19616D02*
X176328Y19812D01*
X175462Y19734D01*
X176289Y19616D01*
G37*
G36*
X176289Y19537D02*
X176289Y19616D01*
X175462Y19734D01*
X176289Y19537D01*
G37*
G36*
X176407Y19498D02*
X176289Y19537D01*
X175462Y19734D01*
X176407Y19498D01*
G37*
G36*
X176604Y19419D02*
X176407Y19498D01*
X175462Y19734D01*
X176604Y19419D01*
G37*
G36*
X177470Y19261D02*
X177076Y19340D01*
X176604Y19419D01*
X177470Y19261D01*
G37*
G36*
X177746Y19143D02*
X177470Y19261D01*
X176604Y19419D01*
X177746Y19143D01*
G37*
G36*
X177942Y19025D02*
X177746Y19143D01*
X176604Y19419D01*
X177942Y19025D01*
G37*
G36*
X177942Y19025D02*
X176604Y19419D01*
X175462Y19734D01*
X177942Y19025D01*
G37*
G36*
X176289Y18986D02*
X177942Y19025D01*
X175462Y19734D01*
X176289Y18986D01*
G37*
G36*
X176486Y18946D02*
X177942Y19025D01*
X176289Y18986D01*
X176486Y18946D01*
G37*
G36*
X176801Y18868D02*
X177942Y19025D01*
X176486Y18946D01*
X176801Y18868D01*
G37*
G36*
X178100Y18828D02*
X177942Y19025D01*
X176801Y18868D01*
X178100Y18828D01*
G37*
G36*
X177234Y18750D02*
X178100Y18828D01*
X176801Y18868D01*
X177234Y18750D01*
G37*
G36*
X176289Y18631D02*
X176289Y18986D01*
X175462Y19734D01*
X176289Y18631D01*
G37*
G36*
X177352Y18631D02*
X178100Y18828D01*
X177234Y18750D01*
X177352Y18631D01*
G37*
G36*
X178179Y18631D02*
X178100Y18828D01*
X177352Y18631D01*
X178179Y18631D01*
G37*
G36*
X176328Y18474D02*
X176289Y18631D01*
X175462Y19734D01*
X176328Y18474D01*
G37*
G36*
X177391Y18474D02*
X178179Y18631D01*
X177352Y18631D01*
X177391Y18474D01*
G37*
G36*
X178218Y18395D02*
X178179Y18631D01*
X177391Y18474D01*
X178218Y18395D01*
G37*
G36*
X176407Y18356D02*
X176328Y18474D01*
X175462Y19734D01*
X176407Y18356D01*
G37*
G36*
X177352Y18356D02*
X178218Y18395D01*
X177391Y18474D01*
X177352Y18356D01*
G37*
G36*
X177273Y18238D02*
X178218Y18395D01*
X177352Y18356D01*
X177273Y18238D01*
G37*
G36*
X175462Y18198D02*
X176407Y18356D01*
X175462Y19734D01*
X175462Y18198D01*
G37*
G36*
X175462Y18198D02*
X176525Y18238D01*
X176407Y18356D01*
X175462Y18198D01*
G37*
G36*
X176722Y18159D02*
X176525Y18238D01*
X175462Y18198D01*
X176722Y18159D01*
G37*
G36*
X177116Y18159D02*
X178218Y18395D01*
X177273Y18238D01*
X177116Y18159D01*
G37*
G36*
X176919Y18120D02*
X176722Y18159D01*
X175462Y18198D01*
X176919Y18120D01*
G37*
G36*
X178139Y18041D02*
X178218Y18395D01*
X177116Y18159D01*
X178139Y18041D01*
G37*
G36*
X178139Y18041D02*
X177116Y18159D01*
X176919Y18120D01*
X178139Y18041D01*
G37*
G36*
X178139Y18041D02*
X176919Y18120D01*
X175462Y18198D01*
X178139Y18041D01*
G37*
G36*
X175423Y17962D02*
X178139Y18041D01*
X175462Y18198D01*
X175423Y17962D01*
G37*
G36*
X176210Y17923D02*
X178139Y18041D01*
X175423Y17962D01*
X176210Y17923D01*
G37*
G36*
X176171Y17844D02*
X176210Y17923D01*
X175423Y17962D01*
X176171Y17844D01*
G37*
G36*
X176407Y17726D02*
X178139Y18041D01*
X176210Y17923D01*
X176407Y17726D01*
G37*
G36*
X177942Y17726D02*
X178139Y18041D01*
X176407Y17726D01*
X177942Y17726D01*
G37*
G36*
X176131Y17687D02*
X176171Y17844D01*
X175423Y17962D01*
X176131Y17687D01*
G37*
G36*
X176643Y17608D02*
X177942Y17726D01*
X176407Y17726D01*
X176643Y17608D01*
G37*
G36*
X175265Y17568D02*
X176131Y17687D01*
X175423Y17962D01*
X175265Y17568D01*
G37*
G36*
X176092Y17568D02*
X176131Y17687D01*
X175265Y17568D01*
X176092Y17568D01*
G37*
G36*
X177588Y17568D02*
X177942Y17726D01*
X176643Y17608D01*
X177588Y17568D01*
G37*
G36*
X176919Y17529D02*
X177588Y17568D01*
X176643Y17608D01*
X176919Y17529D01*
G37*
G36*
X177155Y17490D02*
X177588Y17568D01*
X176919Y17529D01*
X177155Y17490D01*
G37*
G36*
X171801Y17568D02*
X171801Y17568D01*
X172627Y17568D01*
X172627Y19104D01*
X172627Y19340D01*
X172627Y19498D01*
X172667Y19655D01*
X172667Y19734D01*
X172864Y19970D01*
X173139Y20049D01*
X173336Y20009D01*
X173533Y19931D01*
X173651Y19812D01*
X173730Y19616D01*
X173809Y19340D01*
X173809Y18946D01*
X173809Y17568D01*
X174635Y17568D01*
X174635Y20600D01*
X173848Y20600D01*
X173848Y20167D01*
X173651Y20364D01*
X173375Y20561D01*
X173139Y20639D01*
X172824Y20679D01*
X172588Y20639D01*
X172352Y20561D01*
X172155Y20482D01*
X171998Y20324D01*
X171840Y20009D01*
X171801Y19773D01*
X171801Y19458D01*
X171801Y17568D01*
G37*
G36*
X170108Y20639D02*
X169832Y20679D01*
X169557Y20639D01*
X170108Y20639D01*
G37*
G36*
X169320Y20561D02*
X170108Y20639D01*
X169557Y20639D01*
X169320Y20561D01*
G37*
G36*
X170344Y20561D02*
X170108Y20639D01*
X169320Y20561D01*
X170344Y20561D01*
G37*
G36*
X169124Y20442D02*
X170344Y20561D01*
X169320Y20561D01*
X169124Y20442D01*
G37*
G36*
X170580Y20442D02*
X170344Y20561D01*
X169124Y20442D01*
X170580Y20442D01*
G37*
G36*
X170777Y20285D02*
X170580Y20442D01*
X169124Y20442D01*
X170777Y20285D01*
G37*
G36*
X168927Y20246D02*
X168927Y21742D01*
X168100Y21742D01*
X168927Y20246D01*
G37*
G36*
X168927Y20246D02*
X170777Y20285D01*
X169124Y20442D01*
X168927Y20246D01*
G37*
G36*
X169596Y20049D02*
X170777Y20285D01*
X168927Y20246D01*
X169596Y20049D01*
G37*
G36*
X170935Y20049D02*
X170777Y20285D01*
X169596Y20049D01*
X170935Y20049D01*
G37*
G36*
X169320Y19970D02*
X169596Y20049D01*
X168927Y20246D01*
X169320Y19970D01*
G37*
G36*
X169872Y19970D02*
X170935Y20049D01*
X169596Y20049D01*
X169872Y19970D01*
G37*
G36*
X169124Y19812D02*
X169320Y19970D01*
X168927Y20246D01*
X169124Y19812D01*
G37*
G36*
X169124Y19812D02*
X168927Y20246D01*
X168100Y21742D01*
X169124Y19812D01*
G37*
G36*
X170108Y19812D02*
X170935Y20049D01*
X169872Y19970D01*
X170108Y19812D01*
G37*
G36*
X171053Y19773D02*
X170935Y20049D01*
X170108Y19812D01*
X171053Y19773D01*
G37*
G36*
X170265Y19537D02*
X171053Y19773D01*
X170108Y19812D01*
X170265Y19537D01*
G37*
G36*
X168966Y19498D02*
X169124Y19812D01*
X168100Y21742D01*
X168966Y19498D01*
G37*
G36*
X170305Y19143D02*
X171053Y19773D01*
X170265Y19537D01*
X170305Y19143D01*
G37*
G36*
X171131Y19104D02*
X171053Y19773D01*
X170305Y19143D01*
X171131Y19104D01*
G37*
G36*
X168927Y19064D02*
X168966Y19498D01*
X168100Y21742D01*
X168927Y19064D01*
G37*
G36*
X170265Y18710D02*
X171131Y19104D01*
X170305Y19143D01*
X170265Y18710D01*
G37*
G36*
X168966Y18631D02*
X168927Y19064D01*
X168100Y21742D01*
X168966Y18631D01*
G37*
G36*
X170147Y18435D02*
X171131Y19104D01*
X170265Y18710D01*
X170147Y18435D01*
G37*
G36*
X171053Y18435D02*
X171131Y19104D01*
X170147Y18435D01*
X171053Y18435D01*
G37*
G36*
X170068Y18277D02*
X171053Y18435D01*
X170147Y18435D01*
X170068Y18277D01*
G37*
G36*
X169911Y18198D02*
X171053Y18435D01*
X170068Y18277D01*
X169911Y18198D01*
G37*
G36*
X170935Y18159D02*
X171053Y18435D01*
X169911Y18198D01*
X170935Y18159D01*
G37*
G36*
X169793Y18120D02*
X170935Y18159D01*
X169911Y18198D01*
X169793Y18120D01*
G37*
G36*
X168887Y18001D02*
X170935Y18159D01*
X169793Y18120D01*
X168887Y18001D01*
G37*
G36*
X168887Y18001D02*
X169793Y18120D01*
X169596Y18120D01*
X168887Y18001D01*
G37*
G36*
X168887Y18001D02*
X169596Y18120D01*
X169360Y18159D01*
X168887Y18001D01*
G37*
G36*
X168887Y18001D02*
X169360Y18159D01*
X169124Y18356D01*
X168887Y18001D01*
G37*
G36*
X168887Y18001D02*
X169124Y18356D01*
X168966Y18631D01*
X168887Y18001D01*
G37*
G36*
X168887Y18001D02*
X168966Y18631D01*
X168100Y21742D01*
X168887Y18001D01*
G37*
G36*
X170738Y17923D02*
X170935Y18159D01*
X168887Y18001D01*
X170738Y17923D01*
G37*
G36*
X169084Y17765D02*
X170738Y17923D01*
X168887Y18001D01*
X169084Y17765D01*
G37*
G36*
X170541Y17726D02*
X170738Y17923D01*
X169084Y17765D01*
X170541Y17726D01*
G37*
G36*
X169320Y17608D02*
X170541Y17726D01*
X169084Y17765D01*
X169320Y17608D01*
G37*
G36*
X170344Y17608D02*
X170541Y17726D01*
X169320Y17608D01*
X170344Y17608D01*
G37*
G36*
X168100Y17568D02*
X168887Y18001D01*
X168100Y21742D01*
X168100Y17568D01*
G37*
G36*
X168887Y17568D02*
X168887Y18001D01*
X168100Y17568D01*
X168887Y17568D01*
G37*
G36*
X169596Y17529D02*
X170344Y17608D01*
X169320Y17608D01*
X169596Y17529D01*
G37*
G36*
X170108Y17529D02*
X170344Y17608D01*
X169596Y17529D01*
X170108Y17529D01*
G37*
G36*
X169832Y17490D02*
X170108Y17529D01*
X169596Y17529D01*
X169832Y17490D01*
G37*
G36*
X167076Y19812D02*
X167076Y19812D01*
X167076Y20600D01*
X166250Y20600D01*
X166250Y19812D01*
X167076Y19812D01*
G37*
G36*
X167076Y17568D02*
X167076Y17568D01*
X167076Y18356D01*
X166250Y18356D01*
X166250Y17568D01*
X167076Y17568D01*
G37*
G36*
X182578Y12066D02*
X182578Y12066D01*
X182578Y11318D01*
X185531Y11318D01*
X185452Y11712D01*
X185255Y12106D01*
X185098Y12303D01*
X184901Y12539D01*
X184625Y12814D01*
X184311Y13129D01*
X184035Y13366D01*
X183838Y13562D01*
X183720Y13681D01*
X183602Y13799D01*
X183484Y14074D01*
X183444Y14311D01*
X183484Y14547D01*
X183602Y14704D01*
X183759Y14822D01*
X184035Y14862D01*
X184271Y14822D01*
X184429Y14704D01*
X184586Y14507D01*
X184625Y14232D01*
X185452Y14311D01*
X185413Y14625D01*
X185295Y14862D01*
X185177Y15059D01*
X184980Y15255D01*
X184547Y15452D01*
X183996Y15531D01*
X183681Y15492D01*
X183405Y15452D01*
X183169Y15334D01*
X182933Y15177D01*
X182775Y15019D01*
X182657Y14822D01*
X182618Y14586D01*
X182578Y14350D01*
X182618Y14074D01*
X182696Y13838D01*
X182814Y13562D01*
X183011Y13287D01*
X183248Y13051D01*
X183602Y12736D01*
X183917Y12460D01*
X184114Y12303D01*
X184271Y12066D01*
X182578Y12066D01*
G37*
G36*
X180964Y15492D02*
X180649Y15531D01*
X180374Y15492D01*
X180964Y15492D01*
G37*
G36*
X180098Y15413D02*
X180964Y15492D01*
X180374Y15492D01*
X180098Y15413D01*
G37*
G36*
X181240Y15413D02*
X180964Y15492D01*
X180098Y15413D01*
X181240Y15413D01*
G37*
G36*
X179862Y15295D02*
X181240Y15413D01*
X180098Y15413D01*
X179862Y15295D01*
G37*
G36*
X181476Y15295D02*
X181240Y15413D01*
X179862Y15295D01*
X181476Y15295D01*
G37*
G36*
X179665Y15098D02*
X181476Y15295D01*
X179862Y15295D01*
X179665Y15098D01*
G37*
G36*
X181673Y15098D02*
X181476Y15295D01*
X179665Y15098D01*
X181673Y15098D01*
G37*
G36*
X180649Y14862D02*
X181673Y15098D01*
X179665Y15098D01*
X180649Y14862D01*
G37*
G36*
X180531Y14822D02*
X180649Y14862D01*
X179665Y15098D01*
X180531Y14822D01*
G37*
G36*
X179468Y14783D02*
X180531Y14822D01*
X179665Y15098D01*
X179468Y14783D01*
G37*
G36*
X180374Y14783D02*
X180531Y14822D01*
X179468Y14783D01*
X180374Y14783D01*
G37*
G36*
X180964Y14783D02*
X181673Y15098D01*
X180649Y14862D01*
X180964Y14783D01*
G37*
G36*
X181870Y14783D02*
X181673Y15098D01*
X180964Y14783D01*
X181870Y14783D01*
G37*
G36*
X180255Y14625D02*
X180374Y14783D01*
X179468Y14783D01*
X180255Y14625D01*
G37*
G36*
X181082Y14625D02*
X181870Y14783D01*
X180964Y14783D01*
X181082Y14625D01*
G37*
G36*
X181161Y14429D02*
X181870Y14783D01*
X181082Y14625D01*
X181161Y14429D01*
G37*
G36*
X181988Y14429D02*
X181870Y14783D01*
X181161Y14429D01*
X181988Y14429D01*
G37*
G36*
X179350Y14389D02*
X180255Y14625D01*
X179468Y14783D01*
X179350Y14389D01*
G37*
G36*
X180177Y14389D02*
X180255Y14625D01*
X179350Y14389D01*
X180177Y14389D01*
G37*
G36*
X180137Y14232D02*
X180177Y14389D01*
X179350Y14389D01*
X180137Y14232D01*
G37*
G36*
X181200Y14232D02*
X181988Y14429D01*
X181161Y14429D01*
X181200Y14232D01*
G37*
G36*
X180098Y13996D02*
X180137Y14232D01*
X179350Y14389D01*
X180098Y13996D01*
G37*
G36*
X181200Y13996D02*
X181988Y14429D01*
X181200Y14232D01*
X181200Y13996D01*
G37*
G36*
X182066Y13956D02*
X181988Y14429D01*
X181200Y13996D01*
X182066Y13956D01*
G37*
G36*
X179271Y13917D02*
X180098Y13996D01*
X179350Y14389D01*
X179271Y13917D01*
G37*
G36*
X181240Y13720D02*
X182066Y13956D01*
X181200Y13996D01*
X181240Y13720D01*
G37*
G36*
X182106Y13405D02*
X182066Y13956D01*
X181240Y13720D01*
X182106Y13405D01*
G37*
G36*
X179232Y13366D02*
X180098Y13996D01*
X179271Y13917D01*
X179232Y13366D01*
G37*
G36*
X180098Y13051D02*
X180098Y13996D01*
X179232Y13366D01*
X180098Y13051D01*
G37*
G36*
X181240Y13051D02*
X182106Y13405D01*
X181240Y13720D01*
X181240Y13051D01*
G37*
G36*
X179271Y12814D02*
X180098Y13051D01*
X179232Y13366D01*
X179271Y12814D01*
G37*
G36*
X182066Y12814D02*
X182106Y13405D01*
X181240Y13051D01*
X182066Y12814D01*
G37*
G36*
X181200Y12775D02*
X182066Y12814D01*
X181240Y13051D01*
X181200Y12775D01*
G37*
G36*
X180137Y12736D02*
X180098Y13051D01*
X179271Y12814D01*
X180137Y12736D01*
G37*
G36*
X181200Y12539D02*
X182066Y12814D01*
X181200Y12775D01*
X181200Y12539D01*
G37*
G36*
X180137Y12500D02*
X180137Y12736D01*
X179271Y12814D01*
X180137Y12500D01*
G37*
G36*
X181161Y12381D02*
X182066Y12814D01*
X181200Y12539D01*
X181161Y12381D01*
G37*
G36*
X181988Y12381D02*
X182066Y12814D01*
X181161Y12381D01*
X181988Y12381D01*
G37*
G36*
X179350Y12342D02*
X180137Y12500D01*
X179271Y12814D01*
X179350Y12342D01*
G37*
G36*
X180177Y12342D02*
X180137Y12500D01*
X179350Y12342D01*
X180177Y12342D01*
G37*
G36*
X180255Y12145D02*
X180177Y12342D01*
X179350Y12342D01*
X180255Y12145D01*
G37*
G36*
X181082Y12145D02*
X181988Y12381D01*
X181161Y12381D01*
X181082Y12145D01*
G37*
G36*
X180374Y11988D02*
X180255Y12145D01*
X179350Y12342D01*
X180374Y11988D01*
G37*
G36*
X180964Y11988D02*
X181988Y12381D01*
X181082Y12145D01*
X180964Y11988D01*
G37*
G36*
X181870Y11988D02*
X181988Y12381D01*
X180964Y11988D01*
X181870Y11988D01*
G37*
G36*
X179468Y11948D02*
X180374Y11988D01*
X179350Y12342D01*
X179468Y11948D01*
G37*
G36*
X180531Y11909D02*
X180374Y11988D01*
X179468Y11948D01*
X180531Y11909D01*
G37*
G36*
X180807Y11909D02*
X181870Y11988D01*
X180964Y11988D01*
X180807Y11909D01*
G37*
G36*
X181712Y11712D02*
X181870Y11988D01*
X180807Y11909D01*
X181712Y11712D01*
G37*
G36*
X181712Y11712D02*
X180807Y11909D01*
X180531Y11909D01*
X181712Y11712D01*
G37*
G36*
X181712Y11712D02*
X180531Y11909D01*
X179468Y11948D01*
X181712Y11712D01*
G37*
G36*
X179665Y11673D02*
X181712Y11712D01*
X179468Y11948D01*
X179665Y11673D01*
G37*
G36*
X181476Y11515D02*
X181712Y11712D01*
X179665Y11673D01*
X181476Y11515D01*
G37*
G36*
X179862Y11476D02*
X181476Y11515D01*
X179665Y11673D01*
X179862Y11476D01*
G37*
G36*
X180098Y11358D02*
X181476Y11515D01*
X179862Y11476D01*
X180098Y11358D01*
G37*
G36*
X181240Y11358D02*
X181476Y11515D01*
X180098Y11358D01*
X181240Y11358D01*
G37*
G36*
X180374Y11279D02*
X181240Y11358D01*
X180098Y11358D01*
X180374Y11279D01*
G37*
G36*
X180964Y11279D02*
X181240Y11358D01*
X180374Y11279D01*
X180964Y11279D01*
G37*
G36*
X180649Y11240D02*
X180964Y11279D01*
X180374Y11279D01*
X180649Y11240D01*
G37*
G36*
X178562Y11318D02*
X178562Y11318D01*
X178562Y12106D01*
X177736Y12106D01*
X177736Y11318D01*
X178562Y11318D01*
G37*
G36*
X175925Y15492D02*
X175610Y15531D01*
X175334Y15492D01*
X175925Y15492D01*
G37*
G36*
X175059Y15413D02*
X175925Y15492D01*
X175334Y15492D01*
X175059Y15413D01*
G37*
G36*
X176200Y15413D02*
X175925Y15492D01*
X175059Y15413D01*
X176200Y15413D01*
G37*
G36*
X174822Y15295D02*
X176200Y15413D01*
X175059Y15413D01*
X174822Y15295D01*
G37*
G36*
X176437Y15295D02*
X176200Y15413D01*
X174822Y15295D01*
X176437Y15295D01*
G37*
G36*
X174625Y15098D02*
X176437Y15295D01*
X174822Y15295D01*
X174625Y15098D01*
G37*
G36*
X176633Y15098D02*
X176437Y15295D01*
X174625Y15098D01*
X176633Y15098D01*
G37*
G36*
X175610Y14862D02*
X176633Y15098D01*
X174625Y15098D01*
X175610Y14862D01*
G37*
G36*
X175492Y14822D02*
X175610Y14862D01*
X174625Y15098D01*
X175492Y14822D01*
G37*
G36*
X174429Y14783D02*
X175492Y14822D01*
X174625Y15098D01*
X174429Y14783D01*
G37*
G36*
X175334Y14783D02*
X175492Y14822D01*
X174429Y14783D01*
X175334Y14783D01*
G37*
G36*
X175925Y14783D02*
X176633Y15098D01*
X175610Y14862D01*
X175925Y14783D01*
G37*
G36*
X176830Y14783D02*
X176633Y15098D01*
X175925Y14783D01*
X176830Y14783D01*
G37*
G36*
X175216Y14625D02*
X175334Y14783D01*
X174429Y14783D01*
X175216Y14625D01*
G37*
G36*
X176043Y14625D02*
X176830Y14783D01*
X175925Y14783D01*
X176043Y14625D01*
G37*
G36*
X176122Y14429D02*
X176830Y14783D01*
X176043Y14625D01*
X176122Y14429D01*
G37*
G36*
X176948Y14429D02*
X176830Y14783D01*
X176122Y14429D01*
X176948Y14429D01*
G37*
G36*
X174311Y14389D02*
X175216Y14625D01*
X174429Y14783D01*
X174311Y14389D01*
G37*
G36*
X175137Y14389D02*
X175216Y14625D01*
X174311Y14389D01*
X175137Y14389D01*
G37*
G36*
X175098Y14232D02*
X175137Y14389D01*
X174311Y14389D01*
X175098Y14232D01*
G37*
G36*
X176161Y14232D02*
X176948Y14429D01*
X176122Y14429D01*
X176161Y14232D01*
G37*
G36*
X175059Y13996D02*
X175098Y14232D01*
X174311Y14389D01*
X175059Y13996D01*
G37*
G36*
X176161Y13996D02*
X176948Y14429D01*
X176161Y14232D01*
X176161Y13996D01*
G37*
G36*
X177027Y13956D02*
X176948Y14429D01*
X176161Y13996D01*
X177027Y13956D01*
G37*
G36*
X174232Y13917D02*
X175059Y13996D01*
X174311Y14389D01*
X174232Y13917D01*
G37*
G36*
X176200Y13720D02*
X177027Y13956D01*
X176161Y13996D01*
X176200Y13720D01*
G37*
G36*
X177066Y13405D02*
X177027Y13956D01*
X176200Y13720D01*
X177066Y13405D01*
G37*
G36*
X174192Y13366D02*
X175059Y13996D01*
X174232Y13917D01*
X174192Y13366D01*
G37*
G36*
X175059Y13051D02*
X175059Y13996D01*
X174192Y13366D01*
X175059Y13051D01*
G37*
G36*
X176200Y13051D02*
X177066Y13405D01*
X176200Y13720D01*
X176200Y13051D01*
G37*
G36*
X174232Y12814D02*
X175059Y13051D01*
X174192Y13366D01*
X174232Y12814D01*
G37*
G36*
X177027Y12814D02*
X177066Y13405D01*
X176200Y13051D01*
X177027Y12814D01*
G37*
G36*
X176161Y12775D02*
X177027Y12814D01*
X176200Y13051D01*
X176161Y12775D01*
G37*
G36*
X175098Y12736D02*
X175059Y13051D01*
X174232Y12814D01*
X175098Y12736D01*
G37*
G36*
X176161Y12539D02*
X177027Y12814D01*
X176161Y12775D01*
X176161Y12539D01*
G37*
G36*
X175098Y12500D02*
X175098Y12736D01*
X174232Y12814D01*
X175098Y12500D01*
G37*
G36*
X176122Y12381D02*
X177027Y12814D01*
X176161Y12539D01*
X176122Y12381D01*
G37*
G36*
X176948Y12381D02*
X177027Y12814D01*
X176122Y12381D01*
X176948Y12381D01*
G37*
G36*
X174311Y12342D02*
X175098Y12500D01*
X174232Y12814D01*
X174311Y12342D01*
G37*
G36*
X175137Y12342D02*
X175098Y12500D01*
X174311Y12342D01*
X175137Y12342D01*
G37*
G36*
X175216Y12145D02*
X175137Y12342D01*
X174311Y12342D01*
X175216Y12145D01*
G37*
G36*
X176043Y12145D02*
X176948Y12381D01*
X176122Y12381D01*
X176043Y12145D01*
G37*
G36*
X175334Y11988D02*
X175216Y12145D01*
X174311Y12342D01*
X175334Y11988D01*
G37*
G36*
X175925Y11988D02*
X176948Y12381D01*
X176043Y12145D01*
X175925Y11988D01*
G37*
G36*
X176830Y11988D02*
X176948Y12381D01*
X175925Y11988D01*
X176830Y11988D01*
G37*
G36*
X174429Y11948D02*
X175334Y11988D01*
X174311Y12342D01*
X174429Y11948D01*
G37*
G36*
X175492Y11909D02*
X175334Y11988D01*
X174429Y11948D01*
X175492Y11909D01*
G37*
G36*
X175767Y11909D02*
X176830Y11988D01*
X175925Y11988D01*
X175767Y11909D01*
G37*
G36*
X176673Y11712D02*
X176830Y11988D01*
X175767Y11909D01*
X176673Y11712D01*
G37*
G36*
X176673Y11712D02*
X175767Y11909D01*
X175492Y11909D01*
X176673Y11712D01*
G37*
G36*
X176673Y11712D02*
X175492Y11909D01*
X174429Y11948D01*
X176673Y11712D01*
G37*
G36*
X174625Y11673D02*
X176673Y11712D01*
X174429Y11948D01*
X174625Y11673D01*
G37*
G36*
X176437Y11515D02*
X176673Y11712D01*
X174625Y11673D01*
X176437Y11515D01*
G37*
G36*
X174822Y11476D02*
X176437Y11515D01*
X174625Y11673D01*
X174822Y11476D01*
G37*
G36*
X175059Y11358D02*
X176437Y11515D01*
X174822Y11476D01*
X175059Y11358D01*
G37*
G36*
X176200Y11358D02*
X176437Y11515D01*
X175059Y11358D01*
X176200Y11358D01*
G37*
G36*
X175334Y11279D02*
X176200Y11358D01*
X175059Y11358D01*
X175334Y11279D01*
G37*
G36*
X175925Y11279D02*
X176200Y11358D01*
X175334Y11279D01*
X175925Y11279D01*
G37*
G36*
X175610Y11240D02*
X175925Y11279D01*
X175334Y11279D01*
X175610Y11240D01*
G37*
G36*
X170846Y12066D02*
X170846Y12066D01*
X170846Y11318D01*
X173799Y11318D01*
X173720Y11712D01*
X173523Y12106D01*
X173366Y12303D01*
X173169Y12539D01*
X172893Y12814D01*
X172578Y13129D01*
X172303Y13366D01*
X172106Y13562D01*
X171988Y13681D01*
X171870Y13799D01*
X171751Y14074D01*
X171712Y14311D01*
X171751Y14547D01*
X171870Y14704D01*
X172027Y14822D01*
X172303Y14862D01*
X172539Y14822D01*
X172696Y14704D01*
X172854Y14507D01*
X172893Y14232D01*
X173720Y14311D01*
X173681Y14625D01*
X173562Y14862D01*
X173444Y15059D01*
X173248Y15255D01*
X172814Y15452D01*
X172263Y15531D01*
X171948Y15492D01*
X171673Y15452D01*
X171437Y15334D01*
X171200Y15177D01*
X171043Y15019D01*
X170925Y14822D01*
X170885Y14586D01*
X170846Y14350D01*
X170885Y14074D01*
X170964Y13838D01*
X171082Y13562D01*
X171279Y13287D01*
X171515Y13051D01*
X171870Y12736D01*
X172185Y12460D01*
X172381Y12303D01*
X172539Y12066D01*
X170846Y12066D01*
G37*
G36*
X170177Y11318D02*
X170177Y11318D01*
X170177Y12106D01*
X169350Y12106D01*
X169350Y11318D01*
X170177Y11318D01*
G37*
G36*
X165807Y12066D02*
X165807Y12066D01*
X165807Y11318D01*
X168759Y11318D01*
X168681Y11712D01*
X168484Y12106D01*
X168326Y12303D01*
X168129Y12539D01*
X167854Y12814D01*
X167539Y13129D01*
X167263Y13366D01*
X167066Y13562D01*
X166948Y13681D01*
X166830Y13799D01*
X166712Y14074D01*
X166673Y14311D01*
X166712Y14547D01*
X166830Y14704D01*
X166988Y14822D01*
X167263Y14862D01*
X167500Y14822D01*
X167657Y14704D01*
X167814Y14507D01*
X167854Y14232D01*
X168681Y14311D01*
X168641Y14625D01*
X168523Y14862D01*
X168405Y15059D01*
X168208Y15255D01*
X167775Y15452D01*
X167224Y15531D01*
X166909Y15492D01*
X166633Y15452D01*
X166397Y15334D01*
X166161Y15177D01*
X166003Y15019D01*
X165885Y14822D01*
X165846Y14586D01*
X165807Y14350D01*
X165846Y14074D01*
X165925Y13838D01*
X166043Y13562D01*
X166240Y13287D01*
X166476Y13051D01*
X166830Y12736D01*
X167145Y12460D01*
X167342Y12303D01*
X167500Y12066D01*
X165807Y12066D01*
G37*
G36*
X164192Y15492D02*
X163877Y15531D01*
X163602Y15492D01*
X164192Y15492D01*
G37*
G36*
X163326Y15413D02*
X164192Y15492D01*
X163602Y15492D01*
X163326Y15413D01*
G37*
G36*
X164468Y15413D02*
X164192Y15492D01*
X163326Y15413D01*
X164468Y15413D01*
G37*
G36*
X163090Y15295D02*
X164468Y15413D01*
X163326Y15413D01*
X163090Y15295D01*
G37*
G36*
X164704Y15295D02*
X164468Y15413D01*
X163090Y15295D01*
X164704Y15295D01*
G37*
G36*
X162893Y15098D02*
X164704Y15295D01*
X163090Y15295D01*
X162893Y15098D01*
G37*
G36*
X164901Y15098D02*
X164704Y15295D01*
X162893Y15098D01*
X164901Y15098D01*
G37*
G36*
X163877Y14862D02*
X164901Y15098D01*
X162893Y15098D01*
X163877Y14862D01*
G37*
G36*
X163759Y14822D02*
X163877Y14862D01*
X162893Y15098D01*
X163759Y14822D01*
G37*
G36*
X162696Y14783D02*
X163759Y14822D01*
X162893Y15098D01*
X162696Y14783D01*
G37*
G36*
X163602Y14783D02*
X163759Y14822D01*
X162696Y14783D01*
X163602Y14783D01*
G37*
G36*
X164192Y14783D02*
X164901Y15098D01*
X163877Y14862D01*
X164192Y14783D01*
G37*
G36*
X165098Y14783D02*
X164901Y15098D01*
X164192Y14783D01*
X165098Y14783D01*
G37*
G36*
X163484Y14625D02*
X163602Y14783D01*
X162696Y14783D01*
X163484Y14625D01*
G37*
G36*
X164311Y14625D02*
X165098Y14783D01*
X164192Y14783D01*
X164311Y14625D01*
G37*
G36*
X164389Y14429D02*
X165098Y14783D01*
X164311Y14625D01*
X164389Y14429D01*
G37*
G36*
X165216Y14429D02*
X165098Y14783D01*
X164389Y14429D01*
X165216Y14429D01*
G37*
G36*
X162578Y14389D02*
X163484Y14625D01*
X162696Y14783D01*
X162578Y14389D01*
G37*
G36*
X163405Y14389D02*
X163484Y14625D01*
X162578Y14389D01*
X163405Y14389D01*
G37*
G36*
X163366Y14232D02*
X163405Y14389D01*
X162578Y14389D01*
X163366Y14232D01*
G37*
G36*
X164429Y14232D02*
X165216Y14429D01*
X164389Y14429D01*
X164429Y14232D01*
G37*
G36*
X163326Y13996D02*
X163366Y14232D01*
X162578Y14389D01*
X163326Y13996D01*
G37*
G36*
X164429Y13996D02*
X165216Y14429D01*
X164429Y14232D01*
X164429Y13996D01*
G37*
G36*
X165295Y13956D02*
X165216Y14429D01*
X164429Y13996D01*
X165295Y13956D01*
G37*
G36*
X162500Y13917D02*
X163326Y13996D01*
X162578Y14389D01*
X162500Y13917D01*
G37*
G36*
X164468Y13720D02*
X165295Y13956D01*
X164429Y13996D01*
X164468Y13720D01*
G37*
G36*
X165334Y13405D02*
X165295Y13956D01*
X164468Y13720D01*
X165334Y13405D01*
G37*
G36*
X162460Y13366D02*
X163326Y13996D01*
X162500Y13917D01*
X162460Y13366D01*
G37*
G36*
X163326Y13051D02*
X163326Y13996D01*
X162460Y13366D01*
X163326Y13051D01*
G37*
G36*
X164468Y13051D02*
X165334Y13405D01*
X164468Y13720D01*
X164468Y13051D01*
G37*
G36*
X162500Y12814D02*
X163326Y13051D01*
X162460Y13366D01*
X162500Y12814D01*
G37*
G36*
X165295Y12814D02*
X165334Y13405D01*
X164468Y13051D01*
X165295Y12814D01*
G37*
G36*
X164429Y12775D02*
X165295Y12814D01*
X164468Y13051D01*
X164429Y12775D01*
G37*
G36*
X163366Y12736D02*
X163326Y13051D01*
X162500Y12814D01*
X163366Y12736D01*
G37*
G36*
X164429Y12539D02*
X165295Y12814D01*
X164429Y12775D01*
X164429Y12539D01*
G37*
G36*
X163366Y12500D02*
X163366Y12736D01*
X162500Y12814D01*
X163366Y12500D01*
G37*
G36*
X164389Y12381D02*
X165295Y12814D01*
X164429Y12539D01*
X164389Y12381D01*
G37*
G36*
X165216Y12381D02*
X165295Y12814D01*
X164389Y12381D01*
X165216Y12381D01*
G37*
G36*
X162578Y12342D02*
X163366Y12500D01*
X162500Y12814D01*
X162578Y12342D01*
G37*
G36*
X163405Y12342D02*
X163366Y12500D01*
X162578Y12342D01*
X163405Y12342D01*
G37*
G36*
X163484Y12145D02*
X163405Y12342D01*
X162578Y12342D01*
X163484Y12145D01*
G37*
G36*
X164311Y12145D02*
X165216Y12381D01*
X164389Y12381D01*
X164311Y12145D01*
G37*
G36*
X163602Y11988D02*
X163484Y12145D01*
X162578Y12342D01*
X163602Y11988D01*
G37*
G36*
X164192Y11988D02*
X165216Y12381D01*
X164311Y12145D01*
X164192Y11988D01*
G37*
G36*
X165098Y11988D02*
X165216Y12381D01*
X164192Y11988D01*
X165098Y11988D01*
G37*
G36*
X162696Y11948D02*
X163602Y11988D01*
X162578Y12342D01*
X162696Y11948D01*
G37*
G36*
X163759Y11909D02*
X163602Y11988D01*
X162696Y11948D01*
X163759Y11909D01*
G37*
G36*
X164035Y11909D02*
X165098Y11988D01*
X164192Y11988D01*
X164035Y11909D01*
G37*
G36*
X164940Y11712D02*
X165098Y11988D01*
X164035Y11909D01*
X164940Y11712D01*
G37*
G36*
X164940Y11712D02*
X164035Y11909D01*
X163759Y11909D01*
X164940Y11712D01*
G37*
G36*
X164940Y11712D02*
X163759Y11909D01*
X162696Y11948D01*
X164940Y11712D01*
G37*
G36*
X162893Y11673D02*
X164940Y11712D01*
X162696Y11948D01*
X162893Y11673D01*
G37*
G36*
X164704Y11515D02*
X164940Y11712D01*
X162893Y11673D01*
X164704Y11515D01*
G37*
G36*
X163090Y11476D02*
X164704Y11515D01*
X162893Y11673D01*
X163090Y11476D01*
G37*
G36*
X163326Y11358D02*
X164704Y11515D01*
X163090Y11476D01*
X163326Y11358D01*
G37*
G36*
X164468Y11358D02*
X164704Y11515D01*
X163326Y11358D01*
X164468Y11358D01*
G37*
G36*
X163602Y11279D02*
X164468Y11358D01*
X163326Y11358D01*
X163602Y11279D01*
G37*
G36*
X164192Y11279D02*
X164468Y11358D01*
X163602Y11279D01*
X164192Y11279D01*
G37*
G36*
X163877Y11240D02*
X164192Y11279D01*
X163602Y11279D01*
X163877Y11240D01*
G37*
G36*
X159114Y12066D02*
X159114Y12066D01*
X159114Y11318D01*
X162066Y11318D01*
X161988Y11712D01*
X161791Y12106D01*
X161633Y12303D01*
X161437Y12539D01*
X161161Y12814D01*
X160846Y13129D01*
X160570Y13366D01*
X160374Y13562D01*
X160255Y13681D01*
X160137Y13799D01*
X160019Y14074D01*
X159980Y14311D01*
X160019Y14547D01*
X160137Y14704D01*
X160295Y14822D01*
X160570Y14862D01*
X160807Y14822D01*
X160964Y14704D01*
X161122Y14507D01*
X161161Y14232D01*
X161988Y14311D01*
X161948Y14625D01*
X161830Y14862D01*
X161712Y15059D01*
X161515Y15255D01*
X161082Y15452D01*
X160531Y15531D01*
X160216Y15492D01*
X159940Y15452D01*
X159704Y15334D01*
X159468Y15177D01*
X159311Y15019D01*
X159192Y14822D01*
X159153Y14586D01*
X159114Y14350D01*
X159153Y14074D01*
X159232Y13838D01*
X159350Y13562D01*
X159547Y13287D01*
X159783Y13051D01*
X160137Y12736D01*
X160452Y12460D01*
X160649Y12303D01*
X160807Y12066D01*
X159114Y12066D01*
G37*
G36*
X156555Y15452D02*
X157381Y15492D01*
X157027Y15531D01*
X156555Y15452D01*
G37*
G36*
X157657Y15413D02*
X157381Y15492D01*
X156555Y15452D01*
X157657Y15413D01*
G37*
G36*
X156200Y15255D02*
X157657Y15413D01*
X156555Y15452D01*
X156200Y15255D01*
G37*
G36*
X157933Y15255D02*
X157657Y15413D01*
X156200Y15255D01*
X157933Y15255D01*
G37*
G36*
X158208Y15019D02*
X157933Y15255D01*
X156200Y15255D01*
X158208Y15019D01*
G37*
G36*
X155925Y14940D02*
X158208Y15019D01*
X156200Y15255D01*
X155925Y14940D01*
G37*
G36*
X157106Y14862D02*
X158208Y15019D01*
X155925Y14940D01*
X157106Y14862D01*
G37*
G36*
X156870Y14822D02*
X157106Y14862D01*
X155925Y14940D01*
X156870Y14822D01*
G37*
G36*
X157342Y14783D02*
X158208Y15019D01*
X157106Y14862D01*
X157342Y14783D01*
G37*
G36*
X156712Y14744D02*
X156870Y14822D01*
X155925Y14940D01*
X156712Y14744D01*
G37*
G36*
X158405Y14704D02*
X158208Y15019D01*
X157342Y14783D01*
X158405Y14704D01*
G37*
G36*
X157578Y14625D02*
X158405Y14704D01*
X157342Y14783D01*
X157578Y14625D01*
G37*
G36*
X156594Y14586D02*
X156712Y14744D01*
X155925Y14940D01*
X156594Y14586D01*
G37*
G36*
X155767Y14468D02*
X156594Y14586D01*
X155925Y14940D01*
X155767Y14468D01*
G37*
G36*
X157657Y14468D02*
X158405Y14704D01*
X157578Y14625D01*
X157657Y14468D01*
G37*
G36*
X156555Y14389D02*
X156594Y14586D01*
X155767Y14468D01*
X156555Y14389D01*
G37*
G36*
X158523Y14350D02*
X158405Y14704D01*
X157657Y14468D01*
X158523Y14350D01*
G37*
G36*
X157736Y14271D02*
X158523Y14350D01*
X157657Y14468D01*
X157736Y14271D01*
G37*
G36*
X157263Y13996D02*
X157027Y14035D01*
X156751Y13996D01*
X157263Y13996D01*
G37*
G36*
X157814Y13996D02*
X158523Y14350D01*
X157736Y14271D01*
X157814Y13996D01*
G37*
G36*
X157460Y13956D02*
X157263Y13996D01*
X156751Y13996D01*
X157460Y13956D01*
G37*
G36*
X156515Y13917D02*
X157460Y13956D01*
X156751Y13996D01*
X156515Y13917D01*
G37*
G36*
X158602Y13877D02*
X158523Y14350D01*
X157814Y13996D01*
X158602Y13877D01*
G37*
G36*
X157657Y13838D02*
X157460Y13956D01*
X156515Y13917D01*
X157657Y13838D01*
G37*
G36*
X156279Y13799D02*
X157657Y13838D01*
X156515Y13917D01*
X156279Y13799D01*
G37*
G36*
X157854Y13681D02*
X157657Y13838D01*
X156279Y13799D01*
X157854Y13681D01*
G37*
G36*
X157854Y13681D02*
X158602Y13877D01*
X157814Y13996D01*
X157854Y13681D01*
G37*
G36*
X156082Y13641D02*
X157854Y13681D01*
X156279Y13799D01*
X156082Y13641D01*
G37*
G36*
X155925Y13444D02*
X157854Y13681D01*
X156082Y13641D01*
X155925Y13444D01*
G37*
G36*
X157145Y13444D02*
X158602Y13877D01*
X157854Y13681D01*
X157145Y13444D01*
G37*
G36*
X157145Y13444D02*
X157854Y13681D01*
X155925Y13444D01*
X157145Y13444D01*
G37*
G36*
X156909Y13405D02*
X157145Y13444D01*
X155925Y13444D01*
X156909Y13405D01*
G37*
G36*
X157381Y13405D02*
X158602Y13877D01*
X157145Y13444D01*
X157381Y13405D01*
G37*
G36*
X158641Y13366D02*
X158602Y13877D01*
X157381Y13405D01*
X158641Y13366D01*
G37*
G36*
X156712Y13248D02*
X156909Y13405D01*
X155925Y13444D01*
X156712Y13248D01*
G37*
G36*
X157578Y13248D02*
X158641Y13366D01*
X157381Y13405D01*
X157578Y13248D01*
G37*
G36*
X155767Y13208D02*
X156712Y13248D01*
X155925Y13444D01*
X155767Y13208D01*
G37*
G36*
X157736Y13051D02*
X158641Y13366D01*
X157578Y13248D01*
X157736Y13051D01*
G37*
G36*
X156555Y13011D02*
X156712Y13248D01*
X155767Y13208D01*
X156555Y13011D01*
G37*
G36*
X158602Y12814D02*
X158641Y13366D01*
X157736Y13051D01*
X158602Y12814D01*
G37*
G36*
X157775Y12736D02*
X158602Y12814D01*
X157736Y13051D01*
X157775Y12736D01*
G37*
G36*
X155688Y12657D02*
X156555Y13011D01*
X155767Y13208D01*
X155688Y12657D01*
G37*
G36*
X156515Y12657D02*
X156555Y13011D01*
X155688Y12657D01*
X156515Y12657D01*
G37*
G36*
X157736Y12381D02*
X158602Y12814D01*
X157775Y12736D01*
X157736Y12381D01*
G37*
G36*
X158523Y12381D02*
X158602Y12814D01*
X157736Y12381D01*
X158523Y12381D01*
G37*
G36*
X156555Y12303D02*
X156515Y12657D01*
X155688Y12657D01*
X156555Y12303D01*
G37*
G36*
X157578Y12106D02*
X158523Y12381D01*
X157736Y12381D01*
X157578Y12106D01*
G37*
G36*
X155767Y12066D02*
X156555Y12303D01*
X155688Y12657D01*
X155767Y12066D01*
G37*
G36*
X156673Y12066D02*
X156555Y12303D01*
X155767Y12066D01*
X156673Y12066D01*
G37*
G36*
X158405Y12027D02*
X158523Y12381D01*
X157578Y12106D01*
X158405Y12027D01*
G37*
G36*
X156870Y11948D02*
X156673Y12066D01*
X155767Y12066D01*
X156870Y11948D01*
G37*
G36*
X157342Y11948D02*
X158405Y12027D01*
X157578Y12106D01*
X157342Y11948D01*
G37*
G36*
X157106Y11909D02*
X156870Y11948D01*
X155767Y12066D01*
X157106Y11909D01*
G37*
G36*
X157106Y11909D02*
X158405Y12027D01*
X157342Y11948D01*
X157106Y11909D01*
G37*
G36*
X155925Y11830D02*
X157106Y11909D01*
X155767Y12066D01*
X155925Y11830D01*
G37*
G36*
X158208Y11712D02*
X158405Y12027D01*
X157106Y11909D01*
X158208Y11712D01*
G37*
G36*
X158208Y11712D02*
X157106Y11909D01*
X155925Y11830D01*
X158208Y11712D01*
G37*
G36*
X156082Y11633D02*
X158208Y11712D01*
X155925Y11830D01*
X156082Y11633D01*
G37*
G36*
X157972Y11515D02*
X158208Y11712D01*
X156082Y11633D01*
X157972Y11515D01*
G37*
G36*
X156318Y11437D02*
X157972Y11515D01*
X156082Y11633D01*
X156318Y11437D01*
G37*
G36*
X157736Y11358D02*
X157972Y11515D01*
X156318Y11437D01*
X157736Y11358D01*
G37*
G36*
X156555Y11318D02*
X157736Y11358D01*
X156318Y11437D01*
X156555Y11318D01*
G37*
G36*
X156791Y11279D02*
X157736Y11358D01*
X156555Y11318D01*
X156791Y11279D01*
G37*
G36*
X157421Y11279D02*
X157736Y11358D01*
X156791Y11279D01*
X157421Y11279D01*
G37*
G36*
X157106Y11240D02*
X157421Y11279D01*
X156791Y11279D01*
X157106Y11240D01*
G37*
G36*
X200232Y58818D02*
X203645Y58818D01*
X203645Y67031D01*
X200232Y67031D01*
X200232Y58818D01*
G37*
G36*
X200232Y50606D02*
X203645Y50606D01*
X203645Y58818D01*
X200232Y58818D01*
X200232Y50606D01*
G37*
G36*
X201938Y57112D02*
X210151Y57112D01*
X210151Y60524D01*
X201938Y60524D01*
X201938Y57112D01*
G37*
G36*
X188188Y67834D02*
X194151Y67834D01*
X194151Y69803D01*
X188188Y69803D01*
X188188Y67834D01*
G37*
M02*
